<?xml version="1.0" encoding="utf-8"?>
<!-- Generator: Adobe Illustrator 25.0.0, SVG Export Plug-In . SVG Version: 6.00 Build 0)  -->
<svg version="1.1" xmlns="http://www.w3.org/2000/svg" xmlns:xlink="http://www.w3.org/1999/xlink" x="0px" y="0px"
	 viewBox="0 0 1920 1080" style="enable-background:new 0 0 1920 1080;" xml:space="preserve">
<style type="text/css">
	.st0{fill:#DAC4AC;}
	.st1{fill:#0A0A0A;}
	.st2{fill:#0B090A;}
	.st3{fill:#11100F;}
	.st4{fill:#CBB59D;}
	.st5{fill:#D9C4AC;stroke:#0A0A0A;stroke-width:17;stroke-linecap:round;stroke-linejoin:round;stroke-miterlimit:10;}
	.st6{fill:#46372D;}
	.st7{fill:#E39D68;}
	.st8{fill:#DD915C;stroke:#0A0A0A;stroke-width:17;stroke-miterlimit:10;}
	.st9{fill:#4E3D31;}
	.st10{fill:#222120;}
	.st11{fill:#E09862;}
	.st12{fill:#89471B;}
	.st13{display:none;}
	.st14{display:inline;fill:#342921;}
	.st15{fill:#342921;}
	.st16{fill:#261E18;}
	.st17{fill:#9F4235;}
	.st18{fill:#0C0B0B;}
	.st19{fill:#965A32;}
	.st20{fill:#FAF9FB;}
	.st21{display:inline;fill:#4E3D31;}
	.st22{display:inline;fill:#222120;}
	.st23{display:inline;fill:#11100F;}
	.st24{display:inline;fill:#46372D;}
	.st25{fill:#EBA368;}
	.st26{fill:#12100E;}
	.st27{fill:#E19258;}
</style>
<g id="normal">
	<g>
		<path class="st0" d="M-202.5,1129.8c-4.6,0-8.4-3.7-8.5-8.3c-0.2-10.2,1.4-19.8,3.3-30.4c6.5-35.4,18.7-66.9,36.1-93.5
			c18.2-27.8,42.7-51.2,72.8-69.6c40.6-24.8,82.6-43.9,118.2-59.4c15.4-6.7,31.1-13,46.3-19.1c6.9-2.8,13.9-5.6,20.8-8.4
			c0.6-0.3,1.3-0.4,2-0.5c1-0.4,2.6-1,4.6-1c2.2,0,4.4,0.7,6.2,2c2.4,1.7,3.7,4.6,3.5,7.5l0,0.2c0,0.5-0.1,1.4-0.3,2.4
			c-0.5,2.4,1.8,5.7,3.2,7.5c10.3,12.8,40.7,29.5,83.4,45.9c36.6,14,66,21.8,73.4,22.9c0.8-0.3,1.7-0.4,2.6-0.4
			c6.7,0,9.1,5.1,16.3,20.4c1.6,3.3,3.8,8,5.1,10.5c8.9,4.3,14.7,17.8,21.8,34.4c4.5,10.4,9.5,22.1,13.6,26c0.1,0.1,0.3,0.3,0.4,0.4
			l2.5,2.8c0.1,0.1,0.1,0.1,0.2,0.2l11.1,13.3c8.2,8.7,8.6,19.1,1.2,28.7c-0.5,0.7-1.1,2.2-1.7,3.6c-0.3,0.8-0.6,1.7-1,2.6
			c-3.3,11.8-3.9,23.9-4.1,35.3c0,1.3,0,2.6,0,3.9c0.1,4.2,0.2,8.9-1.1,13.8c-0.9,3.8-4.3,6.4-8.2,6.4H-202.5z"/>
		<path class="st1" d="M93.1,848.1c0.4,0,0.8,0.1,1.2,0.4c0,0.5,0,1-0.1,1.5c-7.3,35.8,153.9,86.5,169.7,86.5c0.9,0,1.3-0.2,1.2-0.5
			c0,0,0.1,0,0.1,0c2.5,0,13.9,29.1,16.2,29.5c11.8,2.2,22.8,47.8,34.7,59.4c0.8,0.9,1.7,1.8,2.5,2.8c3.8,4.5,7.5,9,11.3,13.5
			c5.4,5.7,5.8,11.4,0.8,17.8c-1.9,2.4-2.7,5.6-4,8.5c-3.5,12.4-4.3,25.2-4.5,38.1c-0.1,5.3,0.5,10.6-0.8,15.8
			c-174.6,0-349.3,0-523.9,0c-0.2-9.7,1.4-19.2,3.2-28.7c12.4-67.5,45.5-121.1,104.9-157.4c37.5-22.8,77-41.4,117.2-58.8
			c22.1-9.6,44.6-18.3,66.9-27.4c0.1,0,0.1,0,0.2,0C91,849,92,848.1,93.1,848.1 M93.1,831.1c-3,0-5.4,0.7-7,1.3
			c-1,0.2-1.9,0.5-2.8,0.9c-6.9,2.8-13.9,5.7-20.8,8.4c-15.3,6.1-31.1,12.5-46.5,19.2c-35.9,15.6-78.2,34.9-119.3,59.9
			c-31.2,19-56.6,43.3-75.5,72.2c-18,27.6-30.6,60.1-37.3,96.6c-2,11.1-3.7,21.2-3.4,32.2c0.2,9.2,7.8,16.6,17,16.6h523.9
			c7.8,0,14.6-5.3,16.5-12.9c1.5-6,1.4-11.6,1.3-16.1c0-1.3,0-2.5,0-3.6c0.2-10.6,0.7-21.9,3.6-32.7c0.3-0.8,0.6-1.6,0.9-2.3
			c0.2-0.6,0.6-1.4,0.8-1.9c9.6-12.6,8.9-27.5-1.8-39.1l-3.4-4.1l-7.5-9c-0.1-0.1-0.2-0.3-0.4-0.4l-0.8-0.9l-1.7-1.8
			c-0.3-0.3-0.6-0.6-0.8-0.9c-2.9-2.9-8.4-15.6-11.7-23.3c-6.9-16.1-13.1-30.5-23.2-37.1c-1.2-2.3-2.7-5.6-3.8-8
			c-1.9-3.9-3.8-8-5.5-11.3c-2.4-4.5-7.4-14-18.5-14c-0.9,0-1.9,0.1-2.8,0.2c-9.8-1.8-43.5-11.3-80-26
			c-59.2-23.8-69.8-38.5-71.3-41.3c0.1-1,0.2-1.8,0.2-2.3l0-0.1c0.4-5.8-2.3-11.5-7.1-14.9C101,832.3,97.1,831.1,93.1,831.1
			L93.1,831.1z"/>
	</g>
	<g>
		<path class="st0" d="M337.4,1129.8c-4.2,0-7.7-3-8.4-7.1c-1.1-6.6-0.7-12.8-0.4-18.8c0.2-2.6,0.3-5.1,0.3-7.5
			c-0.5-22.1,7.7-41.4,25.1-58.9c4.5-4.5,15.1-32.4,20.2-45.8c6.5-17.1,7.7-20,9.9-22.1c0.3-0.2,0.5-0.5,0.8-0.7
			c3.1-2.3,15.4-12.1,28.4-22.5c29.4-23.5,36.1-28.7,37.8-29.7c1.5-0.9,3.3-1.4,5.2-1.4c8.4,0,18.8,9.6,55.5,47.8
			c17.5,18.2,44,45.7,51,48.1c4.9,1.7,8.8,2.5,11.9,2.5c3.1,0,9.7,0,14.7-14.6c11.9-34.8,17.3-71.3,16.8-111.6
			c-0.2-12.5-1.8-24.9-3.6-38.1l-0.1-0.7c-0.4-3,0.8-5.9,3.2-7.8c1.5-1.2,3.4-1.8,5.3-1.8c1,0,2.1,0.2,3,0.6l20.4,7.8
			c0.1,0,0.2,0.1,0.2,0.1c0,0,19.2,8,19.3,8c0,0,3.9,1.8,4,1.8c0.6,0.3,1.2,0.6,1.8,0.9c1.1,0.6,2.2,1.1,3.2,1.5
			c40.2,17.3,75.5,35,107.9,53.9c31.5,18.4,53.4,35.4,71.2,55.3c34.1,38.1,54.2,85.9,59.6,141.9c0.1,0.5,0.2,1.2,0.3,1.9
			c0.5,2.9,1.2,7.2-0.7,11.8c-1.3,3.2-4.4,5.3-7.9,5.3H337.4z"/>
		<path class="st1" d="M610.9,847.3c7.2,2.8,13.8,5.3,20.4,7.8c6.3,2.7,12.7,5.3,19,8c1.3,0.6,2.5,1.1,3.8,1.7
			c1.8,0.9,3.5,1.8,5.4,2.6c36.7,15.8,72.5,33.3,107,53.5c25.4,14.8,49.4,31.6,69.1,53.6c34.9,39,52.5,85.4,57.4,137
			c0.3,3.2,1.5,6.5,0.2,9.8c-185.3,0-370.6,0-555.9,0c-1.4-8.3,0-16.7,0.1-25c-0.6-21.1,8.1-38.2,22.6-52.9c9-9.1,27.2-65.1,30-67.8
			c7.3-5.5,62.7-50.1,65.4-51.7c0.2-0.1,0.5-0.2,0.8-0.2c11.9,0,85.8,89.3,103.7,95.4c5.2,1.8,10.1,2.9,14.7,2.9
			c9.5,0,17.5-5.1,22.7-20.4c12.7-37.2,17.8-75.4,17.2-114.5C614.5,874,612.7,861,610.9,847.3 M610.9,830.3c-3.8,0-7.5,1.2-10.5,3.7
			c-4.7,3.7-7.1,9.6-6.3,15.6l0.1,0.7c1.7,13,3.3,25.2,3.5,37.1c0.6,39.4-4.8,75-16.3,108.8c-2,6-4,7.9-4.5,8.3
			c-0.3,0.2-0.6,0.5-2.1,0.5c-2.1,0-5-0.6-8.8-1.9c-1.1-0.6-5.5-3.4-17.8-15.3c-9.1-8.8-19.9-20-30.3-30.8
			c-11.4-11.9-22.2-23.1-31.3-31.7c-16.5-15.8-23.2-18.6-30.3-18.6c-3.4,0-6.6,0.9-9.5,2.6c-2,1.2-4.1,2.7-38.8,30.4
			c-12.4,9.9-25.2,20.1-28.2,22.4c-0.6,0.4-1.1,0.9-1.6,1.4c-3.7,3.6-5.2,7.3-12,25.2c-4.3,11.3-14.3,37.6-18.5,43.1
			c-18.7,18.9-27.9,40.7-27.3,64.7c0,2.2-0.2,4.5-0.3,7c-0.4,6.2-0.8,13.2,0.5,20.7c1.4,8.2,8.5,14.2,16.8,14.2h555.9
			c6.9,0,13.2-4.2,15.8-10.7c2.7-6.8,1.7-13,1.2-16.4c-0.1-0.5-0.2-1.1-0.2-1.3c-2.7-28.1-9-54.4-18.7-78
			c-10.3-25.2-24.8-48.3-43-68.7c-18.4-20.5-41-38.1-73.2-56.9c-32.7-19.1-68.4-36.9-108.9-54.4c-0.8-0.4-1.8-0.8-2.8-1.4
			c-0.6-0.3-1.2-0.6-1.9-0.9c-0.1-0.1-0.2-0.1-0.4-0.2l-1.8-0.8l-1.9-0.9c-0.2-0.1-0.3-0.1-0.5-0.2l-19-8c-0.2-0.1-0.3-0.1-0.5-0.2
			l-8.7-3.3l-11.7-4.5C615.1,830.7,613,830.3,610.9,830.3L610.9,830.3z"/>
	</g>
	<path class="st2" d="M616.4,118.3c-1.2,2.3-3.1,3.8-5.5,4.8c-2.5,1.1-3.7,3.2-4.6,5.5c-4.2-2-9-3.1-12-7.1
		c4.4-3.1,6.7-9.1,13.1-9.2C610.2,114.7,613.9,115.5,616.4,118.3z"/>
	<path class="st3" d="M607.4,112.4c-6.5,0.1-8.8,6.1-13.1,9.2c-3.5-3.3-1.5-7.4-1.8-11.2c4.4,0.6,7.8-0.2,9.1-5.2
		c0.7-2.9,3.2-3,5.7-2.4C607.4,106,607.4,109.2,607.4,112.4z"/>
	<path class="st4" d="M222.6,982c2.2-0.8,4.6,0.1,6.7-1c4-2,5.2-5.3,4-11.4c2.2-1.2,4.5-1.3,6.8-0.9c11.8,2.2,23.1,5.9,33.7,11.7
		c2.5,1.4,5,2.7,7.9,1.1c13.2,10.1,25.6,21.1,37.5,32.6c0.8,0.9,1.7,1.8,2.5,2.8c3.8,4.5,7.5,9,11.3,13.5c5.4,5.7,5.8,11.4,0.8,17.8
		c-1.9,2.4-2.7,5.6-4,8.5c-11.4-9-22.2-18.9-33.9-27.5c-17.5-13-36.1-24.1-55.2-34.5c-4.8-2.6-9.6-5.2-14.5-7.8
		C224.1,985.8,222.4,984.6,222.6,982z"/>
	<path class="st5" d="M230.3,980.4c-3-3.6-6.8-4.2-11.3-3.6c-25.4,3.8-49.3,12.7-73,22c-6.1,2.3-12.1,4.8-18.2,6.9
		c-5.7,1.9-7.8,0.8-9.8-4.9c-8-23-11.8-46.8-13.6-70.9c-2.1-27-0.7-53.9,4.8-80.5c1.9-7.7,4.4-15.1,8.2-22c1.1-1,1.8-2.2,2.1-3.7
		c2.2-3.3,4.4-6.7,6.6-10c0.8-1.2,1.7-2.4,2.5-3.7c2.2-2.8,4.3-5.5,6.5-8.3c8-8.8,16-17.6,26.4-23.8c1.8-1.1,3.8-1.9,5.8-2.8"/>
	<g>
		<path class="st6" d="M65.9,382.1c-0.9-1.1-1.8-2-2.8-3.1c-3.1-3.2-7-7.2-8.4-13.8c-1.3-6.1-2.8-12.3-4.3-18.4
			c-2.5-10.2-5.1-20.8-6.7-31.5c-3.1-20.5-5.6-37.6-6.9-55.6c-1.6-22.3-0.9-39.4,2.3-55.4c3.1-15.7,7.8-29.4,14.4-41.9
			c0.9-1.7,0.9-2.8,0-4.5c-4.8-9.3-8.2-19.6-10.2-31.3c-0.4-2.6-1.3-7.4,2-11.3c1.9-2.3,4.7-3.5,7.8-3.5c1.8,0,3.7,0.4,5.8,1.3
			c3.5,1.5,5.6,1.9,6.7,2c0.2-1.2,0.2-3.6-0.6-8c-5.7-28.6-1.8-46.8,15.2-72.4c4.8-7.2,13.1-11.4,22.7-11.4c2.8,0,6.8,0.4,9.5,2.1
			c0.1,0.1,0.2,0.1,0.3,0.2c0,0,0-0.1,0-0.1c4.8-19.8,15.4-37.2,31.5-51.7c7.9-7.2,25.3-9.4,30.7-9.4c9.2,0,10.7,6,11,7.9
			c0,0.3,0.1,0.5,0.1,0.6c0.1-0.1,0.2-0.2,0.3-0.3c10.3-12.6,28.8-23,52-29.3l0.2-0.1c9.1-2.2,19-3.2,30.2-3.2
			c9.2,0,17.7,0.7,24.6,1.3c4.7,0.4,8.8,0.7,11.7,0.7c1.7,0,2.4-0.1,2.6-0.2c13.3-5.2,26.1-8.4,39.1-10c0.5-0.1,1-0.1,1.4-0.1
			c6.1,0,11.5,4.4,18.4,9.9c6,4.8,14.3,11.5,19.8,11.5c0.2,0,0.4,0,0.5,0c4.1-0.4,8-0.8,11.8-1.2c11.2-1.2,21.7-2.3,32.1-2.3
			c19.6,0,35.6,4.1,51.7,13.3c6.6,3.7,15.8,14.4,24.8,24.9c0.8,0.9,1.5,1.7,2,2.4c4.2,4.9,6.4,10.1,6.5,15.6c0,0.1,0,0.2,0,0.3
			c0.2,0.1,0.5,0.2,0.9,0.2c25.5,4.8,46.4,16.3,62,34.1c12,13.7,19.1,29.8,21.2,47.7c0.3,2.5,0.5,4.9,0.7,7.3
			c0.1,1.1,0.2,2.2,0.3,3.2l0,0.1c0.2,1.9,0,3.6-0.2,5c0,0.4-0.1,0.9-0.1,1.3l0.3,0.4c0.9,1.1,2.6,1.9,5.4,3c1.2,0.5,2.4,1,3.6,1.6
			l0.8,0.4l0.7,0.5c9.9,7.6,18.6,14.8,25.4,24.6c16.5,24,24.2,49.6,22.9,76.1c-0.3,6.4-1.7,12.9-4.3,20c-1.4,3.7-1.4,7.8-1,13.2
			c1,15.1,1,28.7-0.2,41.7c-2.2,25.3-8.6,49.7-14.7,73.4l-0.9,3.7c-0.2,0.7-0.3,1.6-0.5,2.5c-0.1,0.6-0.2,1.2-0.3,1.8l-0.3,2
			l-1.2,1.6c-1.4,1.8-2.8,3.2-4.1,4.4c-1,0.9-2,1.8-2.3,2.4l-6.1,12l-8.2-10.7c-4.5-5.9-4.5-12.2-4.5-16.9c0-1.5,0-2.9-0.1-4.1
			c-2.6-20.7-5.3-42.2-13.7-61.7c-3.4-8-7.2-14.5-11.6-19.9c-12.9-15.8-16.3-34-17.9-49.9c-3.1-30.2-14.4-54-34.4-72.8
			c-19.1-18-42.3-29.3-70.9-34.6c-9.8-1.8-20.1-2.7-30.5-2.7c-17.8,0-36.9,2.6-58.3,8c-7.2,1.8-14.6,3.9-21.7,5.9
			c-11.4,3.2-23.2,6.5-35.1,9c-12.4,2.6-24.4,4-35.6,4c-21,0-40-4.5-58-13.7c-2-1-3.9-2.2-5.8-3.2c-0.8-0.5-1.6-0.9-2.3-1.4
			l-0.7-0.4l-0.6-0.6c-1.4-1.2-2.7-2.4-4.1-3.6c1,4.5-0.3,7.6-1.6,9.4c-1.4,1.9-4.2,4.3-9.3,4.3c-0.4,0-0.8,0-1.2,0
			c-0.2,0-0.4,0-0.5,0c-12.1,0.6-24,3.7-36.1,9.4c-20.2,9.5-34.1,25.7-42.7,49.5c-4.7,13.1-7.3,27.7-8.2,47.4
			c-0.2,4.8-0.4,9.6-0.6,14.4c-0.2,4.4-0.3,9-0.5,13.5c-0.3,5.6-2.1,11.1-5.5,16.3c-12.6,19.4-19.3,41.1-20.7,66.4l0,0.7l-0.1,0.7
			c-1.6,7.6-1.8,15.5-1.6,23l0.3,24L65.9,382.1z"/>
		<path class="st1" d="M348-59.7c7.4,0,23.7,21.4,38.3,21.4c0.4,0,0.9,0,1.3-0.1c15.8-1.5,29.8-3.4,43.2-3.4
			c15.9,0,30.9,2.7,47.5,12.1c6.6,3.7,19.7,19.8,24.6,25.5c2.5,2.9,4.4,6.3,4.5,10.3c0.1,5.1,2.9,7.8,7.9,8.7
			c22.5,4.2,41.9,14,57.1,31.4c10.8,12.4,17.3,26.8,19.2,43.1c0.4,3.5,0.7,6.9,1,10.4c0.3,3.8-1.7,7.9,1.8,11.2c3.1,4,7.8,5,12,7.1
			c8.7,6.7,17.3,13.6,23.6,22.7c14.6,21.3,22.7,44.7,21.4,70.8c-0.3,6-1.7,11.8-3.8,17.5c-2,5.4-1.9,10.9-1.5,16.7
			c0.9,13.4,1,26.9-0.2,40.4c-2.3,25.8-8.9,50.7-15.4,75.7c-0.4,1.6-0.6,3.3-0.9,4.9c-2.1,2.9-5.5,4.8-7.2,8.1
			c-3.9-5.1-2.2-11.2-2.9-16.8c-2.7-21.8-5.5-43.6-14.3-64c-3.4-7.9-7.5-15.4-12.9-21.9c-10.9-13.3-14.3-28.9-16.1-45.4
			c-3.2-30.4-14.5-57-37-78.2c-21.2-19.9-46.7-31.5-75.2-36.7c-10.7-2-21.4-2.9-32-2.9c-20.3,0-40.4,3.2-60.3,8.3
			c-18.9,4.8-37.4,10.8-56.5,14.9c-11.4,2.4-22.7,3.8-33.8,3.8c-18.5,0-36.6-3.8-54.2-12.7c-2.6-1.3-5.2-2.9-7.7-4.4
			c-6.2-5.5-12.8-10.6-18.4-16.8c-12.3-13.6-19.4-29.2-19.7-47.8c-0.1-6.5,1-12.9,1.1-19.4c0.1-3.4-1.2-6.1-4.6-6.7
			c-0.5-0.1-1-0.1-1.5-0.1c-3,0-5.2,1.8-6.1,5c-1.9,6.7-3.8,13.5-3.8,20.5c-0.1,16.2,4,31.3,12.5,45.1c5.9,9.5,12.1,18.7,22.3,24.3
			c1.1,3.5-0.6,3.9-2.5,3.9c-0.6,0-1.2,0-1.8,0c-0.1,0-0.3,0-0.4,0c-13.8,0.7-26.9,4.3-39.3,10.2c-23.7,11.2-38.4,30.1-47.1,54.3
			c-5.8,16.1-7.9,32.9-8.7,49.9c-0.4,9.3-0.7,18.6-1.1,27.9c-0.2,4.4-1.7,8.4-4.1,12.1c-13.9,21.5-20.7,45.2-22.1,70.6
			c-1.7,7.8-2,15.8-1.8,24.9c-3.9-4.7-8.2-7.4-9.4-13.2c-3.5-16.5-8.4-32.8-10.9-49.4c-2.8-18.2-5.5-36.4-6.8-54.9
			c-1.2-17.9-1.3-35.5,2.1-53.2c2.7-13.8,7-27.1,13.6-39.5c2.2-4.2,2.2-8.3,0.1-12.4c-4.7-9.1-7.6-18.8-9.4-28.9
			c-0.4-2.2-0.8-4.9,1.5-4.9c0.6,0,1.4,0.2,2.5,0.6c4.1,1.7,7.6,2.7,10.5,2.7c6.6,0,9.8-5.1,7.2-18.1c-5.4-27-1.3-43.1,13.9-66
			c4.1-6.1,10.9-7.6,15.6-7.6c2.5,0,4.4,0.4,5,0.8c1.9,1.2,3.8,1.8,5.5,1.8c3.6,0,6.5-2.5,7.6-6.9c4.6-18.9,14.7-34.5,28.9-47.4
			c5.1-4.6,19.2-7.2,25-7.2c1.5,0,2.5,0.2,2.6,0.6c0.6,4.1,2.8,6.8,6.6,8c0.8,0.2,1.5,0.3,2.2,0.3c2.7,0,4.8-1.6,6.6-3.7
			c9-11.1,26-20.6,47.6-26.5c9.6-2.3,19.2-3,28.2-3c15.2,0,28.5,2.1,36.3,2.1c2.4,0,4.3-0.2,5.5-0.7c12-4.7,24.4-8,37.1-9.5
			C347.7-59.7,347.9-59.7,348-59.7 M348-76.7c-0.8,0-1.7,0.1-2.5,0.1c-13.3,1.6-26.4,4.9-40,10.1c-0.2,0-0.4,0-0.6,0
			c-2.6,0-6.5-0.3-11-0.7c-7-0.6-15.8-1.3-25.3-1.3c-11.9,0-22.4,1.1-32.1,3.5l-0.2,0.1l-0.2,0.1c-20.1,5.4-37,13.9-48.8,24.3
			c-2-1.4-4.4-2.5-7-3c-1.6-0.3-3.4-0.5-5.4-0.5c-5,0-25.8,2-36.4,11.6c-15.1,13.6-25.7,29.6-31.6,47.6c-1.3-0.1-2.6-0.2-4-0.2
			c-12.5,0-23.4,5.5-29.8,15.2c-17.2,25.8-22,45.6-17.4,73.4c-0.9-0.1-1.7-0.2-2.6-0.2c-5.6,0-10.8,2.4-14.3,6.6
			c-5.9,6.9-4.4,15.1-3.9,18.2c2.1,11.9,5.4,22.5,10.2,32.1c-6.6,12.8-11.3,26.7-14.4,42.5c-3.3,16.8-4,34.5-2.4,57.6
			c1.3,18.3,3.8,35.6,7,56.3c1.7,11.1,4.3,21.8,6.9,32.2c1.5,6.2,3,12.1,4.2,18.1c1.9,8.9,7.1,14.3,10.6,17.9
			c0.9,0.9,1.7,1.8,2.4,2.6l30.7,36.8l-0.7-47.9c-0.1-7,0-14.4,1.5-21.1l0.3-1.3l0.1-1.3c1.3-23.8,7.6-44.1,19.4-62.3
			c4.2-6.5,6.5-13.4,6.8-20.6c0.2-4.6,0.4-9.2,0.5-13.6c0.2-4.7,0.3-9.5,0.6-14.3c0.9-18.8,3.3-32.7,7.7-44.9
			c7.8-21.6,20.3-36.2,38.3-44.7c11-5.2,21.6-8,32.6-8.6l0.1,0c0.5,0,1,0,1.5,0c9.1,0,14.1-4.8,16.2-7.7c0,0,0.1-0.1,0.1-0.1
			c1.4,0.8,2.8,1.6,4.4,2.4c19,9.7,39.8,14.6,61.9,14.6c11.8,0,24.4-1.4,37.4-4.2c12.2-2.6,24.1-5.9,35.6-9.2c7.1-2,14.4-4,21.5-5.8
			c20.7-5.2,39.1-7.8,56.2-7.8c9.9,0,19.6,0.9,29,2.6c27,5,48.8,15.6,66.7,32.4c18.4,17.3,28.8,39.4,31.7,67.5
			c1.8,17.1,5.5,36.9,19.8,54.4c3.9,4.8,7.3,10.6,10.4,17.9c7.9,18.5,10.5,39.3,13,59.4c0.1,0.6,0.1,1.9,0.1,3
			c0,5.2,0,13.9,6.2,22.1l16.4,21.3l11.8-23.2c0.3-0.3,0.6-0.6,0.9-0.8c1.4-1.3,3.3-3.1,5.2-5.6l2.4-3.2l0.7-3.9
			c0.1-0.6,0.2-1.3,0.3-1.9c0.1-0.6,0.2-1.4,0.3-1.7l0.9-3.7c6.2-24,12.6-48.8,14.9-74.8c1.2-13.4,1.2-27.5,0.2-43.1
			c-0.3-4.3-0.3-7.4,0.5-9.7c2.9-7.9,4.5-15.3,4.8-22.5c1.4-28.3-6.8-55.7-24.4-81.3c-8.1-11.8-19.1-20.3-27.2-26.6l-1.4-1.1
			l-1.6-0.8c-1.5-0.7-2.8-1.3-4.1-1.8c0,0,0,0-0.1,0c0-0.8,0-1.7-0.1-2.5l0-0.1l0-0.1c-0.1-1.1-0.2-2.1-0.3-3.2
			c-0.2-2.4-0.5-5-0.8-7.5c-2.3-19.7-10.1-37.3-23.2-52.3c-15.8-18.1-36.5-30.2-61.7-35.9c-1.3-5.1-3.8-9.9-7.7-14.4
			c-0.6-0.7-1.2-1.5-2-2.4c-11.8-14-20-22.8-27.1-26.8c-17.5-9.9-34.7-14.4-55.9-14.4c-10.8,0-21.6,1.1-33,2.3
			c-3.7,0.4-7.6,0.8-11.5,1.2c-3.2-0.5-10.8-6.6-14.5-9.6C364.2-71,357.1-76.7,348-76.7L348-76.7z"/>
	</g>
	<path class="st4" d="M473.1,960.1c-1.7,6.5,1.9,21.6-3.6,24.8c-24,13.9-47.3,29-69.5,45.7c-15.8,12-30.4,25.2-44.1,39.5
		c-2.6,2.7-5.4,4.9-9.2,5.7c-0.6-21.1,8.1-38.2,22.6-52.9c9-9.1,19.1-17,28.8-25.3c2.8-2.2,5.5-4.3,8.3-6.5c3.3-2.1,6.4-4.4,9.3-7.1
		c7.3-5.5,14.5-10.9,21.8-16.4c2.4,2.8,4.8,1.8,7.5,0.2C453.6,963,462.5,958.5,473.1,960.1z"/>
	<path class="st5" d="M394.4,997.8c25-19.4,74.6-143.7,74-177.7c-0.3-19.6,66.4-33.3,66.6-52.9c0-3.9,1.5-3.6,4.2-2.6
		c11.4,4.6,20.3,12.7,28.6,21.5c11.9,12.7,21.8,26.8,29,42.7c4.9,10.7,5.7,22.5,7,34c4.7,42.1,0.3,83.5-10.2,124.3
		c-1.9,7.2-4,14.3-6.8,21.3c-3.7,9.4-6.4,11.1-16.1,7.9c-12.1-3.9-24-8.4-36-12.7c-20.9-7.4-41.8-14.8-63.8-18.5"/>
	<g>
		<path class="st7" d="M345.8,1043.9c-2.8,0-6.9-1.1-10.3-6.3c-0.2-0.3-0.3-0.5-0.5-0.8c-0.6-1.2-1.9-2.5-3.3-3.9
			c-0.2-0.2-0.4-0.4-0.5-0.6l-3.3-3.8c-0.2-0.2-0.4-0.5-0.5-0.7c-1.7-2.4-3.9-4.6-6.4-6.9c-0.1-0.1-0.2-0.2-0.3-0.3l-4.6-4.7
			c-8-8.3-15.8-15.4-23.9-22l-0.6-0.4c-0.2-0.1-0.4-0.3-0.7-0.5l-50.5-40.5c-0.3-0.2-0.5-0.4-0.7-0.6l-18.2-17.6
			c-0.1-0.1-0.2-0.2-0.3-0.3c0,0-2-2.1-2.1-2.2l-1-1.2c0,0-0.9-1.1-1-1.1l-9.2-10.8c-0.1-0.2-0.3-0.3-0.4-0.5l-0.8-1
			c-0.1-0.1-0.1-0.2-0.2-0.3l-1.5-2.1l-4.4-5.8c-0.1-0.1-0.2-0.3-0.3-0.5c-8.4-12.9-17.6-28.5-22.4-46.9c-2-8-3-15.3-3-22.4
			c0.2-20.6,0.3-41.5,0.4-61.7l0.1-21.7c0-1.1,0-2.1,0-3.3l0-2c0-2.7,1.2-5.2,3.4-6.8c1.5-1.1,3.3-1.7,5.1-1.7
			c0.8,0,1.5,0.1,2.3,0.3c4.6,1.3,7.2,4,8.7,5.6c0.2,0.2,0.5,0.5,0.7,0.7c15.2,14.3,35.8,32.4,60.1,46c28.6,16.1,59.5,24,94.3,24
			c5.8,0,11.9-0.2,17.9-0.7c41.7-3.1,80.1-20.6,117.5-53.3c9.9-8.6,19.4-17.7,29.2-27.1c1.6-1.5,3.7-2.4,5.9-2.4
			c1,0,1.9,0.2,2.8,0.5c3,1.1,5.2,3.8,5.6,7c0.8,6.7,0.6,12.8,0.3,18.7c-0.1,2.3-0.2,4.5-0.2,6.7c-0.2,24.5-0.6,48.7-1.2,72
			c-0.5,19.4-8.9,35.9-16.7,49.8c-3.1,5.6-6.7,10.8-10.2,15.9c-1.5,2.2-3,4.5-4.5,6.7c-0.1,0.1-0.1,0.2-0.2,0.3l-1.2,1.7
			c-0.3,0.5-0.7,0.9-1.2,1.3c-1.5,1.3-2.8,3-4.4,5.5c-0.2,0.4-0.5,0.7-0.8,1c-16.1,18.2-33.2,34.6-50.6,48.7c-0.4,0.3-2,1.6-7,5.5
			c-11.2,8.7-45.3,35.2-48.6,38.2c-0.3,0.3-0.7,0.6-1.1,0.9c-9,6.4-17.6,14-25.7,22.6C354.3,1040.3,350.9,1043.9,345.8,1043.9
			C345.8,1043.9,345.8,1043.9,345.8,1043.9z"/>
		<path class="st1" d="M520.7,744.1c1.1,8.6,0.1,16.4,0,24.3c-0.2,24-0.6,48-1.2,71.9c-0.4,16.8-7.6,31.6-15.6,45.8
			c-4.3,7.7-9.6,14.8-14.4,22.2c-0.4,0.6-0.8,1.1-1.2,1.7c-2.3,2.1-4.2,4.6-5.9,7.3c-15.2,17.2-31.7,33.3-49.6,47.7
			c-1.6,1.3-53.8,41.6-56.3,44.3c-9.8,7-18.7,15-26.9,23.7c-1.5,1.6-2.7,2.5-3.8,2.5c-1,0-2-0.8-3.2-2.5c-1.2-2.4-3.1-4.3-5-6.2
			c-1.1-1.3-2.2-2.6-3.3-3.8c-2.2-3.1-4.9-5.7-7.6-8.3c-1.5-1.6-3-3.1-4.6-4.7c-7.8-8-16-15.7-24.7-22.7c-0.4-0.3-0.8-0.6-1.1-0.8
			c0,0,0,0,0,0c-16.8-13.5-33.7-27-50.5-40.4l-0.1-0.1c-6.1-5.9-12.2-11.8-18.3-17.7c-0.6-0.7-1.3-1.3-1.9-2c-0.3-0.4-0.7-0.8-1-1.1
			c-0.3-0.3-0.6-0.6-0.8-0.9c-3.1-3.6-6.2-7.2-9.2-10.8c0,0-0.1-0.1-0.1-0.1c-0.3-0.4-0.6-0.7-0.9-1.1c-0.5-0.7-1-1.4-1.5-2.1
			c-1.5-2-2.9-3.9-4.4-5.9c-9-13.8-17.1-28.2-21.2-44.3c-1.7-6.6-2.7-13.3-2.7-20.2c0.2-27.8,0.3-55.6,0.5-83.4c0-1.6,0-3.2,0-5.4
			c3,0.8,4.3,2.8,5.9,4.3c19,17.8,38.9,34.4,61.7,47.2c31,17.4,63.9,25.1,98.5,25.1c6.1,0,12.3-0.2,18.6-0.7
			c47.5-3.6,87.2-24.5,122.5-55.4C501.1,762.8,510.6,753.8,520.7,744.1 M520.7,727.1c-4.3,0-8.5,1.6-11.8,4.7
			c-9.7,9.3-19.2,18.3-28.9,26.8c-36,31.5-72.8,48.2-112.5,51.2c-5.8,0.4-11.7,0.7-17.3,0.7c-33.3,0-62.8-7.5-90.1-22.9
			c-23.4-13.2-43.5-30.9-58.4-44.8c-0.1-0.1-0.2-0.3-0.4-0.4c-1.9-2-5.8-6.1-12.6-8c-1.5-0.4-3-0.6-4.5-0.6c-3.7,0-7.3,1.2-10.3,3.5
			c-4.2,3.2-6.7,8.2-6.7,13.5l0,2c0,1.2,0,2.2,0,3.3c0,7.3-0.1,14.5-0.1,21.8c-0.1,20.2-0.2,41.1-0.4,61.6c-0.1,7.9,1,15.9,3.2,24.6
			c5,19.6,14.7,36,23.5,49.4c0.2,0.3,0.4,0.6,0.6,0.9l2.2,2.9l2.2,2.9l1.5,2c0.1,0.2,0.3,0.3,0.4,0.5l0.6,0.7l0.1,0.1
			c0.2,0.3,0.4,0.6,0.7,0.8l2.9,3.4l6.4,7.4c0.1,0.1,0.1,0.2,0.2,0.2l0.8,0.9c0,0,0.1,0.1,0.1,0.1l0.5,0.6l0.5,0.6
			c0.1,0.1,0.2,0.2,0.3,0.3l0.7,0.7l1.3,1.3c0.2,0.2,0.3,0.3,0.5,0.5l9.1,8.8l9,8.7c0.4,0.4,0.9,0.8,1.4,1.2l44.9,36l5.6,4.5
			c0.3,0.3,0.7,0.5,1.1,0.8l0.3,0.2c7.7,6.3,15.2,13.2,23,21.2l4.6,4.7c0.2,0.2,0.4,0.4,0.5,0.5c2.1,2,4.1,3.9,5.2,5.6
			c0.3,0.5,0.7,0.9,1.1,1.4l0.8,1l2.5,2.9c0.3,0.4,0.7,0.8,1,1.1c0.4,0.4,1.4,1.4,1.8,1.9c0.2,0.5,0.5,0.9,0.8,1.4
			c5.8,8.9,13.4,10.2,17.4,10.2c8.8,0,14.4-5.9,16.2-7.8c7.7-8.2,15.9-15.4,24.5-21.5c0.7-0.5,1.3-1,1.9-1.6
			c4.2-3.7,37.1-29.3,48-37.7c5.4-4.2,6.7-5.2,7.2-5.6c17.8-14.4,35.2-31.1,51.6-49.7c0.6-0.7,1.1-1.4,1.6-2.1c1.2-1.8,2.1-3,3-3.8
			c0.9-0.8,1.7-1.7,2.4-2.6l1.2-1.7c0.2-0.2,0.3-0.4,0.5-0.7c1.4-2.2,2.9-4.3,4.4-6.6c3.5-5.2,7.2-10.6,10.5-16.5
			c8.3-14.8,17.3-32.4,17.8-53.8c0.6-23.4,1-47.7,1.2-72.2c0-2,0.1-4.2,0.2-6.5c0.3-5.9,0.5-12.6-0.4-20.1
			c-0.8-6.4-5.1-11.8-11.2-13.9C524.5,727.5,522.6,727.1,520.7,727.1L520.7,727.1z"/>
	</g>
	<path class="st8" d="M65.4,534c-9.1-7.5-16.3-16.4-21.7-26.9c-12.9-24.9-20.3-51.2-19.1-79.5c0.3-7.4,1.9-14.5,5.2-21.2
		c5.3-10.6,13.4-16.7,25.7-16.2c4.3,0.6,7.2,3.1,9.2,6.8c0.7,1.3,1.5,2.6,2.5,3.8c7.5,9.7,10.1,20.6,10.5,32.9
		c1.1,32.8,3.9,65.5,7.5,98c0.1,0.8,0.3,1.6,0.5,2.4c0,0,0,0.4,0,0.4s0.3,0.2,0.3,0.2c-0.5,0.5-0.5,1-0.2,1.6
		c0.3,6.3,0.3,6.3-7.5,4.4c-2-0.8-3.9-1.6-5.9-2.4c-0.7-0.4-1.3-0.7-2-1.1C68.8,536.2,67.1,535.1,65.4,534z"/>
	<path class="st8" d="M637.9,389.2c11.9,0.3,19.8,6.3,24.9,16.8c6.2,12.9,6.1,26.4,4.7,40.1c-2.1,21.5-8,42-18.5,61.1
		c-4.8,8.7-11,16.2-17.9,23.2c-5.9,4.4-12.1,8.2-19.3,10.1c-3.1,0.8-4.2,0.4-3.8-3.1c4.5-39.5,7.1-79.1,7.9-118.9
		c0-1.9,0.8-3.5,1.7-5.1c3.3-5.4,6.8-10.7,9.7-16.2C629.7,392.8,632.8,389.8,637.9,389.2z"/>
	<path class="st2" d="M643.5,543.7c0.6-0.5,1.2-0.9,1.8-1.4C644.6,542.8,644,543.3,643.5,543.7z"/>
	<g>
		<path class="st7" d="M350.1,828.7c-20.9,0-41.1-2.9-60.2-8.6c-25.5-7.6-49.4-20.4-73-39.3c-32.6-26-59.3-52.9-81.5-82.3
			c-18.7-24.7-32.5-51.8-41.2-80.6c-0.1-0.2-0.2-0.5-0.3-0.7l-0.2-0.4c-0.1-0.3-0.2-0.6-0.3-0.9l-3.1-9.9c-0.1-0.3-0.2-0.6-0.2-0.9
			l-0.1-0.4c-0.6-3.2-1.3-6.4-1.9-9.5l-0.1-0.4c-1.5-7.5-3.1-15.2-4.5-23c-1-5.7-1.9-11.3-2.7-16.7c-0.4-2.4-0.7-4.8-1.1-7.1l0-0.2
			c0-0.2,0-0.3-0.1-0.5l-1.3-12.1c-0.1-0.6-0.1-1.3,0-1.9c-0.5-2.4-0.9-6,0.1-10.1c-3.7-24-6-47.9-6.9-71.2c-0.7-4.7-1-9.1-0.8-13.5
			c-0.7-8.9-1.4-18-1.1-27.6l0-1.7c0-16.6,0.5-36.3,3.5-56.5c0.2-1.5,0.4-3,0.6-4.5l0-0.1c1-7.2,2.2-16.1,5.8-24.8l0.7-2.1
			c3.6-11.7,9.2-21.6,14.7-30.6l2.6-4.5c0.7-1.6,0.9-5,1-8c0.1-1.9,0.2-4.2,0.4-6.6c-0.2-2.5-0.1-5.1,0.3-7.8
			c0.1-19.2,1.4-41.8,9.7-63.8c7.6-20.1,19.5-35.7,35.4-46.6c14.7-10,32.9-16,54.2-17.7c3.5-0.3,7.1-0.4,11-0.4
			c7.9,0,15.4,0.6,22.3,1.2c1.8,0.2,4.5,0.5,7.5,1.6c13.1,5,26.7,7.4,41.6,7.4c12.4,0,25.6-1.7,40.4-5.1c9.2-2.1,18.7-4.8,27.8-7.5
			c11.8-3.4,23.9-6.8,36.4-9.4c16.4-3.4,31.5-5,46.2-5c22.2,0,42.5,3.7,62.2,11.3c39.1,15.1,64.4,40,77.3,76
			c4.4,12.3,6,24.4,7.5,36.1l0,0.2c0.3,2.6,0.7,5.1,1,7.7c1.5,10.7,5.3,19.9,11.6,28.3c10.8,14.4,18.4,30.4,22.8,47.5
			c0.6,2.5,0.8,4.8,0.9,6.3c0.1,0.3,0.2,0.6,0.3,0.9l0.3,1.2c3.6,13.2,4.7,26.3,5.9,38.9c0,0,0.3,3.5,0.4,4.8
			c2.6,27.3,2.3,57.1-0.8,91.1c-0.6,6.6-1.5,13.1-2.4,19.3c-0.1,1-0.3,1.9-0.4,2.9c0.8,2.8,1,5.9,0.7,9.2l0,0.4
			c-0.3,3.5-0.7,7.1-1,10.8l0,0.2c-3.5,36.8-7.1,75-18.2,112.2c-9.5,31.7-24.5,60.4-44.8,85.4c-18.8,23.2-40.2,44.7-65.6,66
			c-15.1,12.6-29.5,22.6-44.2,30.5c-21.5,11.6-44.1,18.8-67.2,21.4C368.6,828.1,359.2,828.7,350.1,828.7z"/>
		<path class="st1" d="M431.8,126.9c21.1,0,40.4,3.5,59.1,10.7c36.7,14.2,60.3,37.4,72.3,70.9c4.1,11.4,5.6,23.1,7.1,34.3l0,0.2
			c0.3,2.6,0.7,5.2,1.1,7.8c1.7,12.1,6.1,22.6,13.2,32.2c10.1,13.5,17.3,28.5,21.4,44.6c0.5,1.9,0.6,3.7,0.6,5.1
			c0,0.5,0.1,1.2,0.1,1.5l0.5,0.8l0.3,1.2c3.4,12.5,4.5,25.2,5.6,37.5c0.2,1.6,0.3,3.2,0.4,4.8c2.5,26.8,2.3,56.1-0.8,89.6
			c-0.6,6.4-1.5,12.8-2.3,18.9c-0.2,1.7-0.5,3.3-0.7,5c0.9,2.1,1.3,4.5,0.9,7.4l0,0.4c-0.3,3.6-0.7,7.2-1,10.9l0,0.1
			c-3.5,36.5-7,74.2-17.9,110.6c-9.2,30.6-23.7,58.4-43.2,82.5c-18.4,22.7-39.5,43.9-64.4,64.8c-14.6,12.2-28.6,21.9-42.8,29.6
			c-20.5,11.1-42.1,18-64.1,20.5c-9.2,1-18.3,1.6-27.1,1.6c-20.1,0-39.5-2.8-57.8-8.2c-24.4-7.3-47.4-19.6-70.2-37.8
			c-32.1-25.6-58.3-52-80-80.7c-18.2-24.1-31.7-50.5-40.1-78.6c0-0.1-0.1-0.1-0.1-0.2c-0.1-0.3-0.3-0.6-0.4-0.9l-0.2-0.4l-3.1-9.9
			l-0.1-0.4c-0.7-3.3-1.3-6.5-2-9.8c-1.5-7.5-3.1-15.2-4.5-22.9c-1-5.5-1.8-11.1-2.6-16.5c-0.4-2.4-0.7-4.8-1.1-7.2l0-0.2l-1.3-12.1
			l0.3-0.8c0-0.2-0.1-0.3-0.1-0.4c-0.4-1.8-1.3-5.4,0.1-9.3c-3.9-24.5-6.3-48.9-7.1-72.6c-0.7-4.5-1-8.7-0.7-12.8l0-0.5
			c-0.7-8.7-1.4-17.6-1-26.7l0-1.8c0-16.3,0.4-35.6,3.4-55.3c0.2-1.5,0.4-3.1,0.6-4.6l0-0.1c1-7.2,2.1-15.3,5.3-23l0.8-2.5
			c3.3-10.8,8.6-20.2,13.9-28.8l2.8-4.9c1.6-3.2,1.8-7.3,2-11.6c0.1-2.2,0.2-4.6,0.5-7c-0.3-2.2-0.2-4.6,0.3-7
			c0.1-18.8,1.3-40.7,9.2-61.6c6.9-18.4,17.8-32.7,32.2-42.6c13.5-9.2,30.3-14.7,50.1-16.2c3.3-0.3,6.7-0.4,10.3-0.4
			c7.5,0,14.8,0.6,21.6,1.2c1.3,0.1,3.2,0.4,5.2,1.1c14,5.4,28.6,8,44.6,8c0,0,0,0,0,0c13.1,0,26.9-1.7,42.4-5.3
			c9.4-2.2,19-4.9,28.2-7.6c11.6-3.3,23.6-6.7,35.7-9.2C403.1,128.5,417.6,126.9,431.8,126.9 M431.8,109.9c-15.3,0-31,1.7-48,5.2
			c-12.8,2.6-25.1,6.2-37,9.5c-9.1,2.6-18.4,5.3-27.4,7.4c-14.2,3.3-26.8,4.9-38.5,4.9c-13.9,0-26.5-2.2-38.6-6.8
			c-3-1.1-6.1-1.8-9.7-2.2c-7.1-0.6-14.9-1.2-23.1-1.2c-4.1,0-7.9,0.1-11.7,0.4c-22.8,1.8-42.4,8.3-58.3,19.2
			c-17.4,11.9-30.3,28.9-38.5,50.6c-8.7,23-10.1,46.3-10.3,66.1c-0.4,2.8-0.5,5.6-0.4,8.4c-0.2,2.4-0.3,4.5-0.4,6.4
			c-0.1,1.6-0.2,3.9-0.4,5l-2.1,3.6c-5.8,9.4-11.6,19.8-15.5,32.3l-0.6,1.8c-3.9,9.5-5.2,18.9-6.2,26.5l0,0.2
			c-0.2,1.4-0.4,2.9-0.6,4.3c-3.1,20.7-3.6,40.8-3.6,57.8l0,1.5c-0.4,9.8,0.3,19,1,27.9c-0.2,4.6,0.1,9.3,0.8,14.2
			c0.8,22.9,3.1,46.5,6.7,70.2c-0.8,4.3-0.4,8.1,0,10.8c0,0.8,0,1.5,0.1,2.3l1.3,12.1c0,0.3,0.1,0.6,0.1,0.9l0,0.2
			c0.4,2.3,0.7,4.7,1.1,7c0.8,5.5,1.7,11.2,2.7,17c1.4,7.8,3,15.6,4.5,23.1l0,0.1l0,0.1c0.6,3.2,1.3,6.4,1.9,9.7l0.1,0.4
			c0.1,0.6,0.3,1.2,0.5,1.8l3.1,9.9c0.2,0.6,0.4,1.2,0.7,1.8l0.2,0.4c0,0,0,0.1,0,0.1c0,0.1,0.1,0.2,0.1,0.3
			c9,29.6,23.3,57.4,42.4,82.7c22.6,29.9,49.8,57.3,83,83.8c24.5,19.5,49.3,32.9,75.9,40.8c19.9,5.9,40.9,8.9,62.6,8.9
			c9.4,0,19.2-0.6,29-1.7c24.2-2.7,47.8-10.3,70.3-22.4c15.2-8.2,30.1-18.5,45.6-31.5c25.8-21.6,47.6-43.5,66.7-67.1
			c20.9-25.8,36.5-55.5,46.3-88.3c11.4-38,15-76.5,18.6-113.8l0-0.1c0,0,0-0.1,0-0.1c0.3-3.6,0.7-7.2,1-10.7l0-0.3
			c0.4-3.7,0.2-7.2-0.5-10.6c0.1-0.4,0.1-0.8,0.2-1.2c0.9-6.4,1.8-12.9,2.4-19.7c3.1-34.5,3.4-64.9,0.8-92.7
			c-0.1-1.2-0.2-2.4-0.3-3.6l-0.1-1.1c-1.2-13-2.4-26.4-6.1-40.3c0,0,0-0.1,0-0.1l-0.3-1.2c0-0.1,0-0.2-0.1-0.2
			c-0.1-1.8-0.4-4.1-1.1-6.8c-4.6-18.2-12.8-35.2-24.2-50.5c-5.5-7.3-8.7-15.1-10-24.5c-0.4-2.6-0.7-5.2-1-7.6c0,0,0,0,0-0.1l0-0.2
			c-1.5-11.6-3.2-24.7-7.9-37.8c-6.8-19.1-17.3-35.7-31-49.1c-13.5-13.3-30.8-24-51.2-31.9C476.4,113.8,455.1,109.9,431.8,109.9
			L431.8,109.9z"/>
	</g>
	<path class="st9" d="M231.2,590.8c2.7-2.5,5.6-4.3,9.5-4.1c1.8,0.1,3.2-0.9,4.7-1.8c4.2-2.6,7.6-6.3,13.5-5.3
		c3.3,0.5,6.2-2.5,8.9-4.4c2.3-1.7,4.7-2.6,7.6-2.3c1.6,2.2,2.5,0.2,3.5-0.6c3.8-2.6,7.6-4.8,12.5-4c2.6,0.4,4.4-2.2,6.8-2.8
		c4.7-3,10.5-1.1,15.3-3.8c8.2,2.3,16.9,0.7,25,3.6c1.6,0.6,3,0.3,4.5-0.1c9.5-1.9,19.1-5.4,28.8-0.6c6.3-3,11.1,3.6,15.8,3.1
		c7.6-0.8,12.4,4.8,18.4,5.2c7.5,0.5,12.5,4.5,18.3,7.5c1,0.5,1.8,0.8,2.8,0c2.1-1.5,3.9-0.2,5.8,0.6c4.1,2,9,3.6,12.4,5.7
		c8.2,5.3,18.8,6.4,25.4,14.8c7.2,9.1,11.3,19.2,13.2,30.4c2.4,14.1,1.7,28.5,2.6,42.7c0.1,1.9,0,3.8,0.2,5.7c0.1,1.3-0.3,3,1.7,3.2
		c1.4,0.2,2.8,0.2,3.8-1c1.1-1.3,2.1-2.7,3.2-4c0.9-1,2-2.9,2.8-2.8c7,0.8,7.1-5.3,9.6-9.1c1.7-2.6,2.6-5.8,6.9-4.4
		c1.5,0.5,1.9-1.2,2.5-2.1c1.6-2.8,2.9-5.9,4.8-8.6c1.7-2.5,2.5-7.1,7.6-3.9c1.5,0.9,1.9-1.5,2.5-2.6c3.2-6.3,6.2-12.7,9.4-18.9
		c1.4-2.7,2.9-5.6,6.5-2.3c1.6,1.5,2-0.5,2.5-1.3c2.4-4.4,4.6-8.8,7-13.2c1.3-2.4,2.6-5.3,6.3-3c1.5,0.9,1.8-0.5,2.3-1.2
		c8.6-13.8,16.9-27.8,23.4-42.8c9.1-21,15.6-42.7,19.5-65.2c0.1-0.5,0.5-0.9,0.8-1.3c2.1,2,1.2,4.6,1,6.8c-2.3,22-4.1,44.1-7.1,66
		c-7.2,53.7-23.8,103.7-60.4,145.3C516.8,743.4,489,771.1,456,793c-30.7,20.4-64.5,30.6-101.5,31c-32.8,0.4-63.9-5.7-93.1-20.7
		c-18.7-9.6-35.6-22.1-51.5-35.9c-14.1-12.3-27.7-25.2-40.6-38.8c-27.1-28.6-49.5-60.3-62.8-97.7c-7.3-20.6-12.3-41.8-15.3-63.5
		c-0.8-6.1-2-12.2-3-18.3c-0.4-3.4-0.7-6.9-1.1-10.3c0.9-4.1-2.2-8.2-0.1-12.4c1.2,0.7,0.9,2,1.3,3.1c1,5.6,2.1,11.2,4,16.5
		c-0.4,2.2,1,4.1,1.2,6.2c0.3,0.4,0.5,0.8,0.8,1.2c0,0-0.1,0-0.1,0c0.9,2.7,1.9,5.4,2.8,8.2c4.1,13.3,10.9,25.2,18.1,37
		c0.3,0.5,0.6,0.9,0.9,1.4c0,0.2,0,0.5,0.2,0.7c0.3,0.4,0.6,0.8,0.9,1.2c0,0-0.1,0-0.1,0c1.3,5,5.1,5.5,9.3,5.3
		c0.4,0.6,0.8,1.2,1.2,1.8c0.3,0.4,0.6,0.9,0.9,1.3c1.4,3.1,2.7,6.2,4.3,9.2c1.4,2.6,2.6,5.4,6.7,4c2.6-0.8,3.6,1.8,4.8,3.8
		c3.5,6,5.2,12.8,9.2,18.5c0.6,0.8,1.5,2.3,1.8,2.2c7.5-2.9,7.5,4.3,10.4,7.5c0.2,0.3,0.4,0.5,0.6,0.8c0.5,1.6,1.2,3.2,2.4,4.4
		c0.1,1.5,1,3.3,2.3,2.8c4.8-2,5.3,2,7,4.5c2,3.1,2.3,7.8,8.1,7.3c2.2-0.2,3.2,3.7,5,5.5c1.5,1.4,2.8,3.2,5.3,2.4
		c2.4-0.8,0.9-3,1.4-4.4c1.3-3.9,0.3-7.7,0.2-11.6c0-9.7,1.2-19.3,1.6-29c0.3-7.7,2.5-14.9,5.3-22c2.4-5.5,6.3-10.2,9.6-15.2
		l-0.1-0.3c0,0,0.1,0.3,0.1,0.3c1.7-1.1,3.3-2.4,4-4.4c1.3-0.8,2.6-1.5,4-2.3C226.4,595.7,228.9,593.4,231.2,590.8z M426.2,753.6
		c2.9,1.2,4.1-0.7,5.1-2c3.6-4.5,8-8.3,11.9-12.7c2.6-3,7.5-3.9,8.7-8.7c0.5-2.1,1.6-4.1,2.5-6.2c0.5-1.3,1-3,2.5-3
		c3.4-0.1,3.4-2.8,4.2-4.9c1.2-3.2,2.5-6.4,3.4-9.5c1.8-6.3,2.9-13.6,2.5-19.6c-1-13-3.8-26.1-8.3-38.8c-3.1-8.7-9.5-13.8-16.4-16.7
		c-5.2-2.2-10.4-4.6-15.5-7.2c-0.6-0.3-1.4-0.8-1.9-0.6c-5,2.2-8.4-1.6-12.5-3.1c-1.3-0.5-2.7-2-3.7-1.7c-6.8,1.8-11.8-2.5-17.5-4.5
		c-0.9-0.3-2.4-1.1-2.9-0.7c-4,2.9-7.5-0.1-11.3-0.5c-4.3-0.5-8.2-2.4-12.6-2.8c-5.5-0.5-11.5,1.4-16.8-1.7
		c-4.5-2.6-8.8-2.3-13.6-0.2c-6.9,3.1-14.7,2.6-22,3.8c-6.5,1-12.9,3.9-20.2,3.1c-5.1-0.6-10.4,4.1-16.7,4.4
		c-5.3,0.3-10.1,4.1-16.1,4.8c-5.6,0.7-11,5-16.7,7.3c-7,2.9-13.5,8.4-15.7,17.1c-1.4,5.7-4,10.8-4.8,16.9
		c-1.5,10.6-5,20.6-2.2,31.8c1.7,6.9,4,13.6,5.4,20.6c0.7,3.6,4.8,2.2,5.9,4.9c2.5,5.8,3.9,12,10.9,15.3c3.1,1.4,4.8,6.1,8.6,8.5
		c4.7,2.9,7.1,8.5,14.2,9.3c4.6,0.5,8.5,5.2,14.4,5.8c5.1,0.5,10.2,3.2,15.7,4.3c6.5,1.3,13.3-0.1,19.5,2.6c0.9,0.4,2.1,0.2,3,0
		c8.7-1.8,17.7-0.1,26.5-1.5c3.2-0.5,6.3,2.1,9.6,0.8c3.4-1.3,6.8-0.8,10.1,0.3c1.8,0.6,3.6,1.1,5.5,0.5c7.5-2.4,15.5-1.9,23.2-3.4
		c5-1,9.6-2.1,14-4.5c0.9-0.5,2.2-1.1,2.9-0.7c4.6,2,7.3-1.2,10.4-3.6C421.7,755.5,423.5,753.2,426.2,753.6z"/>
	<path class="st10" d="M494,431.6c-2.5,2.8-4.9,5.6-7.4,8.4c-1.2,0.8-2.3,1.7-3.5,2.5c0,0,0.2,0,0.2,0c-0.6,0.4-1.1,0.8-1.7,1.1
		c-0.8,0.2-1.5,0.4-2.3,0.6c-5.4,1.8-10.9,2.3-16.5,1.9c-8.9-1.8-16.5-5.7-21.4-13.7c-3.6-7.5-5-15.4-5.4-23.6
		c1.7-1.6,0.9-3.8,1.5-5.7c3.6-10.7,10.5-17.9,21.5-21c1-0.3,1.9-0.7,2.8-1.1c1-0.1,2.1-0.2,3.1-0.3c23.1-0.1,34.8,17.8,33.9,36.2
		c-0.3,1.4-0.5,2.8-0.8,4.2c-0.1,0.3-0.1,0.7-0.2,1c-0.6,1.7-1.2,3.4-1.8,5.2c-0.2,0.4-0.3,0.9-0.5,1.3
		C495.1,429.8,494.6,430.7,494,431.6z"/>
	<path class="st10" d="M216.2,447.3c-2-0.8-4.3,0.1-6.2-1.2c-3.4-1.8-6.8-3.5-10.3-5.3c-1.3-1.4-2.6-2.7-3.9-4.1
		c-1.7-3.3-3.4-6.5-5.2-9.8c-7.5-24.1,9.1-46.6,32.7-44.8c5.5,1.1,10.8,2.9,15.4,6.4c1.4,1.3,2.7,2.6,4.1,3.9
		c2.1,3.1,4.1,6.2,6.2,9.3c2,8.2,3.3,16.4,0,24.6c-3.9,9.7-10.7,16.3-20.4,20.1C224.6,447.3,220.4,447.3,216.2,447.3z"/>
	<path class="st3" d="M329.8,549.6c-8.7-1-16.3-5.2-24.6-7.6c-2-4-7.4-4.8-8.7-9.4c-0.8-3.3-1-6.8,2.5-8.5c3.6-1.8,7.2-0.9,10.5,1.5
		c9.3,6.8,19.7,9.8,31.1,9.3c5.7-0.3,11.4-1.2,16.1-5c5.5-1.5,8.3-5.5,10.3-10.5c1.2-1.9,2.2-3.8,1.8-6.2c0.7-2.8,0.7-5.7-0.1-8.5
		c0.1-0.3,0.1-0.6,0-0.9c-0.2-4-1.5-7.8-3-11.5c-0.4-1-0.8-1.9-1.2-2.9c-0.2-0.7-0.4-1.4-0.7-2.1c-0.2-0.4-0.4-0.8-0.6-1.2
		c0.8-2.1-2.4-1.5-2.3-3.4c0.5-6.4-3.5-11.4-5.3-17.2c-2.4-2.7-0.3-5.3,1.1-7.1c2-2.6,5.3-2.3,8.3-1.4c1,0.8,1.9,1.7,2.9,2.5
		c1.2,6.6,4.6,12.4,7.3,18.4c3.1,7.1,5.9,14.2,7.5,21.8c5.4,25.4-9.6,46.4-35.5,49.6c-1.3,0.2-2.7,0.5-4,0.8
		C338.7,550.1,334.2,549.8,329.8,549.6z"/>
	<path class="st11" d="M361.2,485.6c0.2,0.7,0.4,1.4,0.7,2.1C360.6,487.3,360.1,486.7,361.2,485.6z"/>
	<path class="st6" d="M377.3,698.8c-0.9,3.1,0.8,7.9-4.5,10.2c-1,0.4-1,2.8-1.7,4.1c-1.9,3.8-2.5,8.8-8.6,8.7c-1,0-1.9,1.7-2.9,2.7
		c-1.9,1.7-3.4,4.1-6.5,3c-1.3-0.5-1.9,0.3-2.6,1c-3.9,3.4-7.3,1-11.5,0.4c-5.7-0.9-8.3-6.4-14.1-6.4c-2.9,0-4.2-3.7-5.6-6.3
		c-1.7-3-2.2-6.4-5.1-9.1c-3.4-3.3-2.5-15.3,0.5-19.2c0.9-1.1,2.2-2.5,3.3-2.1c5.7,2.3,11.3-0.7,17.1,0c5.8,0.8,12.2,0.6,18.1,0
		c6.2-0.7,12.1,1.5,18.2-0.1c1.9-0.5,3.3,1.6,4.1,3.4C376.8,691.8,377.3,694.8,377.3,698.8z"/>
	<path class="st12" d="M342.8,644.6c21.1-1.4,42.5-2.9,62.8-3.5c4.5-0.1,8.9-0.5,13.4-0.9c3.9-0.3,7.2,0.7,7.3,5.1
		c0.1,4.3-3,5.6-6.9,5.9c-15.6,1.3-31.2,1.6-46.9,2.4c-28,3-52.6,0.1-78.9-0.6c-8.4-0.2-16.8-1-25.2-1.6c-3.4-0.3-6.3-1.8-6-5.7
		c0.3-4,3.1-5.3,7-5C294.5,642.8,318.5,643.1,342.8,644.6z"/>
	<g id="eyebrow" class="st13">
		<path class="st14" d="M202.8,345.3c-1.4,0-2.8,0.1-4.1,0.1c-19.9,1.5-39,6.2-57.3,14.1c-3.4,1.5-7,3.9-10.5,0.5
			c-3.3-3.3-1.2-7-0.1-10.6c2.2-3.7,5.6-6.6,7.3-10.6c0.6-0.7,1.3-1.3,1.9-2c4.8-3.1,9.2-6.7,13.5-10.4c0,0,0,0,0,0
			c5.1-2.1,10-4.5,15.2-6.2c19.9-6.6,40.4-7.8,61.1-7.3c15.7,0.4,31.2,2.1,46.5,5.9c11,2.7,17.3,13.6,14.7,24.6
			c-0.7,3-2.2,5.4-4.5,7.4c-2.4,0.5-4.8,0.9-7.2,1.4c-2.8,0.2-5.3-1.9-8.2-1.2c-0.8-1.3-1.9-1.3-3.2-0.8c-1-0.1-2-0.2-3-0.3
			c-0.8-1.4-2-1.2-3.2-0.8c-0.7,0-1.4,0-2.1,0c-2.6-1.8-5.4-1.4-8.3-1.1c-0.6-0.1-1.3-0.2-1.9-0.4c-0.5-1.1-1.2-1.2-2.2-0.7
			c-2.4-0.1-4.7-0.2-7.1-0.3c-1.4-2-3.4-1.2-5.3-1.1c-0.7-0.1-1.4-0.2-2.1-0.4C222.8,344.7,212.8,344.4,202.8,345.3z"/>
		<path class="st14" d="M548.4,337c1.6,2.7,4.9,3.9,5.9,7.1c1.9,3.9,4.6,7.5,3.8,12.2c-2.5,4.7-6.1,4.6-10.4,2.6
			c-25.9-12-53.3-16-81.6-15.2c-1.5,0-3.1-0.5-4.3,1.1c-3.1,0.1-6.2,0.2-9.2,0.2c-1.3-0.7-2.4-0.8-3.2,0.7c-2.7,0.1-5.4,0.2-8.1,0.4
			c-1.2-0.4-2.4-0.6-3.2,0.7c-1.3,0.1-2.7,0.3-4,0.4c-1.1-0.2-2.4-0.9-3.2,0.6c-1,0.1-2,0.3-3,0.4c-1.2-0.2-2.4-0.9-3.2,0.6
			c-1.3,0.1-2.7,0.2-4,0.3c-1-0.5-1.7-0.3-2.2,0.7c-1,0.1-2,0.3-3,0.4c-1.2-0.2-2.4-0.8-3.2,0.7c-1,0.1-2,0.1-3,0.2
			c-1.4-0.8-2.1,0.5-3.1,1c-8.6-4.3-10.5-7.4-9.8-15.3c0.8-8.7,3.8-16.2,13-18.4c34.2-8.1,68.7-9.7,103.2-1.7
			c11.1,2.6,20.9,7.7,29.7,14.9C544.4,333.5,546.4,335.2,548.4,337z"/>
	</g>
	<g id="eyebrow_1_">
		<path class="st15" d="M202.8,345.3c-1.4,0-2.8,0.1-4.1,0.1c-19.9,1.5-39,6.2-57.3,14.1c-3.4,1.5-7,3.9-10.5,0.5
			c-3.3-3.3,8-17.4,14.2-22.3c10.6-9.6,18.3-15.7,23.5-17.5c16.8-5.4,39.6-7.1,61.1-7.3c15.7,0.4,30.8-2.1,46.1,1.7
			c11,2.7,17.7,17.8,15.1,28.8c-0.7,3-2.2,5.4-4.5,7.4c-2.4,0.5-4.8,0.9-7.2,1.4c-2.8,0.2-5.3-1.9-8.2-1.2c-0.8-1.3-1.9-1.3-3.2-0.8
			c-1-0.1-2-0.2-3-0.3c-0.8-1.4-2-1.2-3.2-0.8c-0.7,0-1.4,0-2.1,0c-2.6-1.8-5.4-1.4-8.3-1.1c-0.6-0.1-1.3-0.2-1.9-0.4
			c-0.5-1.1-1.2-1.2-2.2-0.7c-2.4-0.1-4.7-0.2-7.1-0.3c-1.4-2-3.4-1.2-5.3-1.1c-0.7-0.1-1.4-0.2-2.1-0.4
			C222.8,344.7,212.8,344.4,202.8,345.3z"/>
		<path class="st15" d="M563.9,360.9c2.9,3.6-18-7.1-48.5-14.3c-20.7-4.8-40.4-2-46.1-1.9c-1.5,0-3.1-0.5-4.3,1.1
			c-3.1,0.1-6.2,0.2-9.2,0.2c-1.3-0.7-2.4-0.8-3.2,0.7c-2.7,0.1-5.4,0.2-8.1,0.4c-1.2-0.4-2.4-0.6-3.2,0.7c-1.3,0.1-2.7,0.3-4,0.4
			c-1.1-0.2-2.4-0.9-3.2,0.6c-1,0.1-2,0.3-3,0.4c-1.2-0.2-2.4-0.9-3.2,0.6c-1.3,0.1-2.7,0.2-4,0.3c-1-0.5-1.7-0.3-2.2,0.7
			c-1,0.1-2,0.3-3,0.4c-1.2-0.2-2.4-0.8-3.2,0.7c-1,0.1-2,0.1-3,0.2c-1.4-0.8-2.1,0.5-3.1,1c-8.6-4.3-10.5-7.4-9.8-15.3
			c0.8-8.7,7.7-22.9,16.9-25.1c34.2-8.1,75.8,0.8,96.8,5.7c12.5,2.9,24.2,11.5,33,18.8C548.3,339.1,566.4,356.3,563.9,360.9z"/>
	</g>
</g>
<g id="right-punch">
	<g>
		<path class="st0" d="M1000.5,1121.9c-4.6,0-8.4-3.7-8.5-8.3c-0.2-10.2,1.4-19.8,3.3-30.4c6.5-35.4,18.7-66.9,36.1-93.5
			c18.2-27.8,42.7-51.2,72.8-69.6c40.6-24.8,82.6-43.9,118.2-59.4c15.3-6.7,31.1-13,46.3-19.1c6.9-2.8,13.9-5.6,20.8-8.4
			c0.6-0.3,1.3-0.4,2-0.5c1-0.4,2.6-1,4.6-1c2.2,0,4.4,0.7,6.2,2c2.4,1.7,3.7,4.6,3.5,7.5l0,0.2c0,0.5-0.1,1.4-0.3,2.4
			c-0.5,2.4,1.8,5.7,3.2,7.5c10.3,12.8,40.7,29.5,83.4,45.9c36.6,14,66,21.8,73.4,22.9c0.8-0.3,1.7-0.4,2.6-0.4
			c6.7,0,9.1,5.1,16.3,20.4c1.6,3.3,3.8,8,5.1,10.5c8.9,4.3,14.7,17.8,21.8,34.4c4.5,10.4,9.5,22.1,13.6,26c0.1,0.1,0.3,0.3,0.4,0.4
			l2.5,2.8c0.1,0.1,0.1,0.1,0.2,0.2l11.1,13.3c8.2,8.7,8.6,19.1,1.2,28.7c-0.5,0.7-1.1,2.2-1.7,3.6c-0.3,0.8-0.6,1.7-1,2.6
			c-3.3,11.8-3.9,23.9-4.1,35.3c0,1.3,0,2.6,0,3.9c0.1,4.2,0.2,8.9-1.1,13.8c-1,3.8-4.3,6.4-8.2,6.4H1000.5z"/>
		<path class="st1" d="M1296.1,840.2c0.4,0,0.8,0.1,1.2,0.4c0,0.5,0,1-0.1,1.5c-7.3,35.8,153.9,86.5,169.7,86.5
			c0.9,0,1.3-0.2,1.2-0.5c0,0,0.1,0,0.1,0c2.5,0,13.9,29.1,16.2,29.5c11.8,2.2,22.8,47.8,34.7,59.4c0.8,0.9,1.7,1.8,2.5,2.8
			c3.8,4.5,7.5,9,11.3,13.5c5.4,5.7,5.8,11.4,0.8,17.8c-1.9,2.4-2.7,5.6-4,8.5c-3.5,12.4-4.3,25.2-4.5,38.1
			c-0.1,5.3,0.5,10.6-0.8,15.8c-174.6,0-349.3,0-523.9,0c-0.2-9.7,1.4-19.2,3.2-28.7c12.4-67.5,45.5-121.1,104.9-157.4
			c37.5-22.8,77-41.4,117.2-58.8c22.1-9.6,44.6-18.3,66.9-27.4c0.1,0,0.1,0,0.2,0C1293.9,841.1,1294.9,840.2,1296.1,840.2
			 M1296.1,823.2c-3,0-5.4,0.7-7,1.3c-1,0.2-1.9,0.5-2.8,0.9c-6.9,2.8-13.9,5.7-20.8,8.4c-15.3,6.1-31.1,12.5-46.5,19.2
			c-35.9,15.6-78.2,34.9-119.3,59.9c-31.2,19-56.6,43.3-75.5,72.2c-18,27.6-30.6,60.1-37.3,96.6c-2,11.1-3.7,21.2-3.4,32.2
			c0.2,9.2,7.8,16.6,17,16.6h523.9c7.8,0,14.6-5.3,16.5-12.9c1.5-6,1.4-11.6,1.3-16.1c0-1.3,0-2.5,0-3.6c0.2-10.6,0.7-21.9,3.6-32.7
			c0.3-0.8,0.6-1.6,0.9-2.3c0.2-0.6,0.6-1.4,0.8-1.9c9.6-12.6,8.9-27.5-1.8-39.1l-9.6-11.4l-1.4-1.6c-0.1-0.1-0.2-0.3-0.4-0.4
			l-1.1-1.2l-1.4-1.6c-0.3-0.3-0.6-0.6-0.8-0.9c-2.9-2.9-8.4-15.6-11.7-23.3c-6.9-16.1-13.1-30.5-23.2-37.1c-1.2-2.3-2.7-5.6-3.8-8
			c-1.9-3.9-3.8-8-5.5-11.3c-2.4-4.5-7.4-14-18.5-14c-0.9,0-1.9,0.1-2.8,0.2c-9.8-1.8-43.5-11.3-80-26
			c-59.2-23.8-69.8-38.5-71.3-41.3c0.1-1,0.2-1.8,0.2-2.3l0-0.1c0.4-5.8-2.3-11.5-7.1-14.9C1303.9,824.4,1300.1,823.2,1296.1,823.2
			L1296.1,823.2z"/>
	</g>
	<g>
		<path class="st0" d="M1540.4,1121.9c-4.2,0-7.7-3-8.4-7.1c-1.1-6.6-0.7-12.8-0.4-18.8c0.2-2.6,0.3-5.1,0.3-7.5
			c-0.5-22.1,7.7-41.4,25.1-58.9c4.5-4.5,15.1-32.4,20.2-45.8c6.5-17.1,7.7-20,9.9-22.1c0.3-0.2,0.5-0.5,0.8-0.7
			c3.1-2.3,15.4-12.1,28.4-22.5c29.4-23.4,36.1-28.7,37.7-29.7c1.5-0.9,3.3-1.4,5.2-1.4c8.4,0,18.8,9.6,55.5,47.8
			c17.5,18.2,44,45.7,51,48.1c4.9,1.7,8.8,2.5,11.9,2.5c3.1,0,9.7,0,14.7-14.6c11.9-34.8,17.3-71.3,16.8-111.6
			c-0.2-12.5-1.8-24.9-3.6-38.1l-0.1-0.7c-0.4-3,0.8-5.9,3.2-7.8c1.5-1.2,3.4-1.8,5.3-1.8c1,0,2.1,0.2,3,0.6l20.4,7.8
			c0.1,0,0.2,0.1,0.2,0.1l19,8c0.1,0,0.2,0.1,0.2,0.1c0,0,3.9,1.8,4,1.8c0.6,0.3,1.2,0.6,1.8,0.9c1.1,0.6,2.2,1.1,3.2,1.5
			c40.2,17.3,75.5,35,107.9,53.9c31.5,18.4,53.4,35.4,71.2,55.3c34.1,38.1,54.2,85.9,59.6,141.9c0.1,0.5,0.2,1.2,0.3,1.9
			c0.5,2.9,1.2,7.2-0.7,11.8c-1.3,3.2-4.4,5.3-7.9,5.3H1540.4z"/>
		<path class="st1" d="M1813.9,839.4c7.2,2.8,13.8,5.3,20.4,7.8c6.3,2.7,12.7,5.3,19,8c1.3,0.6,2.5,1.1,3.8,1.7
			c1.8,0.9,3.5,1.8,5.4,2.6c36.7,15.8,72.5,33.3,107,53.5c25.4,14.8,49.4,31.6,69.1,53.6c34.9,39,52.5,85.4,57.4,137
			c0.3,3.2,1.5,6.5,0.2,9.8c-185.3,0-370.6,0-555.9,0c-1.4-8.3,0-16.7,0.1-25c-0.6-21.1,8.1-38.2,22.6-52.9c9-9.1,27.2-65.1,30-67.8
			c7.3-5.5,62.7-50.1,65.4-51.7c0.2-0.1,0.5-0.2,0.8-0.2c11.9,0,85.8,89.3,103.7,95.4c5.2,1.8,10.1,2.9,14.7,2.9
			c9.5,0,17.5-5.1,22.7-20.4c12.7-37.2,17.8-75.4,17.2-114.5C1817.4,866.1,1815.7,853.1,1813.9,839.4 M1813.9,822.4
			c-3.8,0-7.5,1.2-10.5,3.7c-4.7,3.7-7.1,9.6-6.3,15.6l0.1,0.7c1.7,13,3.3,25.2,3.5,37.1c0.6,39.4-4.8,75-16.3,108.8
			c-2,6-4,7.9-4.5,8.3c-0.3,0.2-0.6,0.5-2.1,0.5c-2.1,0-5-0.6-8.8-1.9c-1.1-0.6-5.5-3.4-17.8-15.3c-9.1-8.8-19.9-20-30.3-30.8
			c-11.4-11.9-22.2-23.1-31.3-31.7c-16.5-15.8-23.2-18.6-30.3-18.6c-3.4,0-6.6,0.9-9.5,2.6c-2,1.2-4.1,2.7-38.7,30.4
			c-12.4,9.9-25.2,20.1-28.2,22.4c-0.6,0.4-1.1,0.9-1.6,1.4c-3.7,3.6-5.2,7.3-12,25.2c-4.3,11.3-14.3,37.6-18.5,43.1
			c-18.7,18.9-27.9,40.7-27.3,64.7c0,2.2-0.2,4.5-0.3,7c-0.4,6.2-0.8,13.2,0.4,20.7c1.4,8.2,8.5,14.2,16.8,14.2h555.9
			c6.9,0,13.2-4.2,15.8-10.7c2.7-6.8,1.7-13,1.2-16.4c-0.1-0.5-0.2-1.1-0.2-1.3c-2.7-28.1-9-54.4-18.7-78
			c-10.3-25.2-24.8-48.3-43-68.7c-18.4-20.5-41-38.1-73.2-56.9c-32.7-19.1-68.4-36.9-108.9-54.4c-0.8-0.4-1.8-0.8-2.8-1.4
			c-0.6-0.3-1.2-0.6-1.9-0.9c-0.1-0.1-0.2-0.1-0.4-0.2l-1.6-0.7l-2.2-1c-0.2-0.1-0.3-0.1-0.5-0.2l-3.2-1.3l-15.8-6.6
			c-0.2-0.1-0.3-0.1-0.5-0.2l-14.2-5.5l-6.2-2.4C1818,822.8,1815.9,822.4,1813.9,822.4L1813.9,822.4z"/>
	</g>
	<path class="st2" d="M1819.4,110.4c-1.2,2.3-3.1,3.8-5.5,4.8c-2.5,1.1-3.7,3.2-4.6,5.5c-4.2-2-9-3.1-12-7.1
		c4.4-3.1,6.7-9.1,13.1-9.2C1813.1,106.8,1816.9,107.6,1819.4,110.4z"/>
	<path class="st3" d="M1810.4,104.5c-6.5,0.1-8.8,6.1-13.1,9.2c-3.5-3.3-1.5-7.4-1.8-11.2c4.4,0.6,7.8-0.2,9.1-5.2
		c0.7-2.9,3.2-3,5.7-2.4C1810.3,98.1,1810.3,101.3,1810.4,104.5z"/>
	<path class="st4" d="M1425.5,974.1c2.2-0.8,4.6,0.1,6.7-1c4-2,5.2-5.3,4-11.4c2.2-1.2,4.5-1.3,6.8-0.9c11.8,2.2,23.1,5.9,33.7,11.7
		c2.5,1.4,5,2.7,7.9,1.1c13.2,10.1,25.6,21.1,37.5,32.6c0.8,0.9,1.7,1.8,2.5,2.8c3.8,4.5,7.5,9,11.3,13.5c5.4,5.7,5.8,11.4,0.8,17.8
		c-1.9,2.4-2.7,5.6-4,8.5c-11.4-9-22.2-18.9-33.9-27.5c-17.5-13-36.1-24.1-55.2-34.5c-4.8-2.6-9.6-5.2-14.5-7.8
		C1427.1,977.9,1425.4,976.7,1425.5,974.1z"/>
	<path class="st5" d="M1433.3,972.5c-3-3.6-6.8-4.2-11.3-3.6c-25.4,3.8-49.3,12.7-73,22c-6.1,2.3-12.1,4.8-18.2,6.9
		c-5.7,1.9-7.8,0.8-9.8-4.9c-8-23-11.8-46.8-13.6-70.9c-2.1-27-0.7-53.9,4.8-80.5c1.9-7.7,4.4-15.1,8.2-22c1.1-1,1.8-2.2,2.1-3.7
		c2.2-3.3,4.4-6.7,6.6-10c0.8-1.2,1.7-2.4,2.5-3.7c2.2-2.8,4.3-5.5,6.5-8.3c8-8.8,16-17.6,26.4-23.8c1.8-1.1,3.8-1.9,5.8-2.8"/>
	<g>
		<path class="st6" d="M1268.8,374.2c-0.9-1.1-1.8-2-2.8-3.1c-3.1-3.2-7-7.2-8.4-13.8c-1.3-6.1-2.8-12.3-4.3-18.4
			c-2.5-10.2-5.1-20.8-6.7-31.5c-3.1-20.5-5.6-37.6-6.9-55.6c-1.6-22.3-0.9-39.4,2.3-55.4c3.1-15.7,7.8-29.4,14.4-41.9
			c0.9-1.7,0.9-2.8,0-4.5c-4.8-9.3-8.2-19.6-10.2-31.3c-0.4-2.6-1.3-7.4,2-11.3c1.9-2.3,4.7-3.5,7.8-3.5c1.8,0,3.7,0.4,5.8,1.3
			c3.5,1.5,5.6,1.9,6.7,2c0.2-1.2,0.2-3.6-0.6-8c-5.7-28.6-1.8-46.8,15.2-72.4c4.8-7.2,13.1-11.4,22.7-11.4c2.8,0,6.8,0.4,9.5,2.1
			c0.1,0.1,0.2,0.1,0.3,0.2c0,0,0-0.1,0-0.1c4.8-19.8,15.4-37.2,31.5-51.7c7.9-7.2,25.3-9.4,30.7-9.4c9.2,0,10.7,6,11,7.9
			c0,0.3,0.1,0.5,0.1,0.6c0.1-0.1,0.2-0.2,0.3-0.3c10.3-12.6,28.8-23,52-29.3l0.2-0.1c9.1-2.2,19-3.2,30.2-3.2
			c9.2,0,17.7,0.7,24.6,1.3c4.7,0.4,8.8,0.7,11.7,0.7c1.7,0,2.4-0.1,2.6-0.2c13.3-5.2,26.1-8.4,39.1-10c0.5-0.1,1-0.1,1.4-0.1
			c6.1,0,11.5,4.4,18.4,9.9c6,4.8,14.3,11.5,19.8,11.5c0.2,0,0.4,0,0.5,0c4.1-0.4,8-0.8,11.8-1.2c11.2-1.2,21.7-2.3,32.1-2.3
			c19.6,0,35.6,4.1,51.7,13.3c6.6,3.7,15.8,14.4,24.8,24.9c0.8,0.9,1.5,1.7,2,2.4c4.2,4.9,6.4,10.1,6.5,15.6c0,0.1,0,0.2,0,0.3
			c0.2,0.1,0.5,0.2,0.9,0.2c25.5,4.8,46.4,16.3,62,34.1c12,13.7,19.1,29.8,21.2,47.7c0.3,2.5,0.5,4.9,0.7,7.3
			c0.1,1.1,0.2,2.2,0.3,3.3l0,0.1c0.2,1.9,0,3.6-0.2,5c0,0.4-0.1,0.9-0.1,1.3l0.3,0.4c0.9,1.1,2.6,1.9,5.4,3c1.2,0.5,2.4,1,3.6,1.6
			l0.8,0.4l0.7,0.5c9.9,7.6,18.6,14.8,25.4,24.6c16.5,24,24.2,49.6,22.9,76.1c-0.3,6.4-1.7,12.9-4.3,20c-1.4,3.7-1.4,7.8-1,13.2
			c1,15.1,1,28.7-0.2,41.7c-2.2,25.2-8.6,49.7-14.7,73.4l-0.9,3.7c-0.2,0.7-0.3,1.6-0.5,2.5c-0.1,0.6-0.2,1.2-0.3,1.8l-0.3,2
			l-1.2,1.6c-1.4,1.8-2.8,3.2-4.1,4.4c-1,0.9-2,1.8-2.3,2.4l-6.1,12l-8.2-10.7c-4.5-5.9-4.5-12.2-4.5-16.9c0-1.5,0-2.9-0.1-4.1
			c-2.6-20.7-5.3-42.2-13.7-61.7c-3.4-8-7.2-14.5-11.7-19.9c-12.9-15.7-16.3-34-17.9-49.9c-3.1-30.2-14.4-54-34.4-72.8
			c-19.1-18-42.3-29.3-70.9-34.6c-9.8-1.8-20.1-2.7-30.5-2.7c-17.8,0-36.9,2.6-58.3,8c-7.2,1.8-14.6,3.9-21.7,5.9
			c-11.4,3.2-23.2,6.5-35.1,9c-12.4,2.6-24.4,4-35.6,4c-21,0-40-4.5-58-13.7c-2-1-3.9-2.2-5.8-3.2c-0.8-0.5-1.6-0.9-2.3-1.4
			l-0.7-0.4l-0.6-0.6c-1.4-1.2-2.7-2.4-4.1-3.6c1,4.5-0.3,7.6-1.6,9.4c-1.4,1.9-4.2,4.3-9.3,4.3c-0.4,0-0.8,0-1.2,0
			c-0.2,0-0.4,0-0.5,0c-12.1,0.6-24,3.7-36.1,9.4c-20.2,9.5-34.1,25.7-42.7,49.5c-4.7,13.1-7.3,27.7-8.2,47.4
			c-0.2,4.8-0.4,9.6-0.6,14.4c-0.2,4.4-0.3,9-0.5,13.5c-0.3,5.6-2.1,11.1-5.5,16.3c-12.6,19.4-19.3,41.1-20.7,66.4l0,0.7l-0.1,0.7
			c-1.6,7.6-1.8,15.5-1.6,23l0.3,24L1268.8,374.2z"/>
		<path class="st1" d="M1551-67.6c7.4,0,23.7,21.4,38.3,21.4c0.4,0,0.9,0,1.3-0.1c15.8-1.5,29.8-3.4,43.2-3.4
			c15.9,0,30.9,2.7,47.5,12.1c6.6,3.7,19.7,19.8,24.6,25.5c2.5,2.9,4.4,6.3,4.5,10.3c0.1,5.1,2.9,7.8,7.9,8.7
			c22.5,4.2,41.9,14,57.1,31.4c10.8,12.4,17.3,26.8,19.2,43.1c0.4,3.5,0.7,6.9,1,10.4c0.3,3.8-1.7,7.9,1.8,11.2c3.1,4,7.8,5,12,7.1
			c8.7,6.7,17.3,13.6,23.6,22.7c14.6,21.3,22.7,44.7,21.4,70.8c-0.3,6-1.7,11.8-3.8,17.5c-2,5.4-1.9,10.9-1.5,16.7
			c0.9,13.4,1,26.9-0.2,40.4c-2.3,25.8-8.9,50.7-15.4,75.7c-0.4,1.6-0.6,3.3-0.9,4.9c-2.1,2.9-5.5,4.8-7.2,8.1
			c-3.9-5.1-2.2-11.2-2.9-16.8c-2.7-21.8-5.5-43.6-14.3-64c-3.4-7.9-7.5-15.4-12.9-21.9c-10.9-13.3-14.3-28.9-16.1-45.4
			c-3.2-30.4-14.5-57-37-78.2c-21.2-19.9-46.7-31.5-75.2-36.7c-10.7-2-21.4-2.9-32-2.9c-20.3,0-40.4,3.2-60.3,8.3
			c-18.9,4.8-37.4,10.8-56.5,14.9c-11.4,2.4-22.7,3.8-33.8,3.8c-18.5,0-36.6-3.8-54.2-12.7c-2.6-1.3-5.2-2.9-7.7-4.4
			c-6.2-5.5-12.8-10.6-18.4-16.8c-12.3-13.6-19.4-29.2-19.7-47.8c-0.1-6.5,1-12.9,1.1-19.4c0.1-3.4-1.2-6.1-4.6-6.7
			c-0.5-0.1-1-0.1-1.5-0.1c-3,0-5.2,1.8-6.1,5c-1.9,6.7-3.8,13.5-3.8,20.5c-0.1,16.2,4,31.3,12.5,45.1c5.9,9.5,12.1,18.7,22.3,24.3
			c1.1,3.5-0.6,3.9-2.5,3.9c-0.6,0-1.2,0-1.8,0c-0.1,0-0.3,0-0.4,0c-13.8,0.7-26.9,4.3-39.3,10.2c-23.7,11.2-38.4,30.1-47.1,54.3
			c-5.8,16.1-7.9,32.9-8.7,49.9c-0.4,9.3-0.7,18.6-1.1,27.9c-0.2,4.4-1.7,8.4-4.1,12.1c-13.9,21.5-20.7,45.2-22.1,70.6
			c-1.7,7.8-2,15.8-1.8,24.9c-3.9-4.7-8.2-7.4-9.4-13.2c-3.5-16.5-8.4-32.8-10.9-49.4c-2.8-18.2-5.5-36.4-6.8-54.9
			c-1.2-17.9-1.3-35.5,2.1-53.2c2.7-13.8,7-27.1,13.6-39.5c2.2-4.2,2.2-8.3,0.1-12.4c-4.7-9.1-7.6-18.8-9.4-28.9
			c-0.4-2.2-0.8-4.9,1.5-4.9c0.6,0,1.4,0.2,2.5,0.6c4.1,1.7,7.6,2.7,10.5,2.7c6.6,0,9.8-5.1,7.2-18.1c-5.3-27-1.3-43.1,13.9-66
			c4.1-6.1,10.9-7.6,15.6-7.6c2.5,0,4.4,0.4,5,0.8c1.9,1.2,3.8,1.8,5.5,1.8c3.6,0,6.5-2.5,7.6-6.9c4.6-18.9,14.7-34.5,28.9-47.4
			c5.1-4.6,19.2-7.2,25-7.2c1.5,0,2.5,0.2,2.6,0.6c0.6,4.1,2.8,6.8,6.6,8c0.8,0.2,1.5,0.3,2.2,0.3c2.7,0,4.8-1.6,6.6-3.7
			c9-11.1,26-20.6,47.6-26.5c9.6-2.3,19.2-3,28.2-3c15.2,0,28.5,2.1,36.3,2.1c2.4,0,4.3-0.2,5.5-0.7c12-4.7,24.4-8,37.1-9.5
			C1550.7-67.6,1550.8-67.6,1551-67.6 M1551-84.6c-0.8,0-1.7,0.1-2.5,0.1c-13.3,1.6-26.4,4.9-40,10.1c-0.2,0-0.4,0-0.6,0
			c-2.6,0-6.5-0.3-11-0.7c-7-0.6-15.8-1.3-25.3-1.3c-11.9,0-22.4,1.1-32.1,3.5l-0.2,0.1l-0.2,0.1c-20.1,5.4-37,13.9-48.8,24.3
			c-2-1.4-4.4-2.5-7-3c-1.6-0.3-3.4-0.5-5.4-0.5c-5,0-25.8,2-36.4,11.6c-15.1,13.6-25.7,29.6-31.6,47.6c-1.3-0.1-2.6-0.2-4-0.2
			c-12.5,0-23.4,5.5-29.8,15.2c-17.2,25.8-22,45.6-17.4,73.4c-0.9-0.1-1.7-0.2-2.6-0.2c-5.6,0-10.8,2.4-14.3,6.6
			c-5.9,6.9-4.4,15.1-3.9,18.2c2.1,11.9,5.4,22.5,10.2,32.1c-6.6,12.8-11.3,26.7-14.4,42.5c-3.3,16.8-4,34.5-2.4,57.6
			c1.3,18.3,3.8,35.6,7,56.3c1.7,11.1,4.3,21.8,6.9,32.2c1.5,6.2,3,12.1,4.2,18.1c1.9,8.9,7.1,14.3,10.6,17.9
			c0.9,0.9,1.7,1.8,2.4,2.6l30.7,36.8l-0.7-47.9c-0.1-7,0-14.4,1.5-21.1l0.3-1.3l0.1-1.3c1.3-23.8,7.6-44.1,19.4-62.3
			c4.2-6.5,6.5-13.4,6.8-20.6c0.2-4.6,0.4-9.2,0.5-13.6c0.2-4.7,0.3-9.5,0.6-14.3c0.9-18.8,3.3-32.7,7.7-44.9
			c7.8-21.6,20.3-36.2,38.3-44.7c11-5.2,21.6-8,32.6-8.6l0.1,0c0.5,0,1,0,1.5,0c9.1,0,14.1-4.8,16.2-7.7c0,0,0.1-0.1,0.1-0.1
			c1.4,0.8,2.8,1.6,4.4,2.4c19,9.7,39.8,14.6,61.9,14.6c11.8,0,24.4-1.4,37.4-4.2c12.2-2.6,24.1-5.9,35.6-9.2c7.1-2,14.4-4,21.5-5.8
			c20.7-5.2,39.1-7.8,56.2-7.8c9.9,0,19.6,0.9,29,2.6c27,5,48.8,15.6,66.6,32.4c18.4,17.3,28.8,39.4,31.7,67.5
			c1.8,17.1,5.5,36.9,19.8,54.4c3.9,4.8,7.3,10.6,10.4,17.9c7.9,18.5,10.5,39.3,13,59.4c0.1,0.6,0.1,1.9,0.1,3
			c0,5.2,0,13.9,6.2,22.1l16.4,21.3l11.8-23.2c0.3-0.3,0.6-0.6,0.9-0.8c1.4-1.3,3.3-3.1,5.2-5.6l2.4-3.2l0.7-3.9
			c0.1-0.6,0.2-1.3,0.3-1.9c0.1-0.6,0.2-1.4,0.3-1.7l0.9-3.7c6.2-24,12.6-48.8,14.9-74.8c1.2-13.4,1.2-27.5,0.2-43.1
			c-0.3-4.3-0.3-7.4,0.5-9.7c2.9-7.9,4.5-15.3,4.8-22.5c1.4-28.3-6.8-55.7-24.4-81.3c-8.1-11.8-19.1-20.3-27.2-26.6l-1.4-1.1
			l-1.6-0.8c-1.5-0.7-2.8-1.3-4.1-1.8c0,0,0,0-0.1,0c0-0.8,0-1.7-0.1-2.5l0-0.1l0-0.1c-0.1-1.1-0.2-2.1-0.3-3.2
			c-0.2-2.4-0.5-4.9-0.8-7.5c-2.3-19.7-10.1-37.3-23.2-52.3C1772.3,9,1751.5-3,1726.4-8.7c-1.3-5.1-3.8-9.9-7.7-14.4
			c-0.6-0.7-1.2-1.5-2-2.4c-11.8-14-20-22.8-27.1-26.8c-17.5-9.9-34.7-14.4-55.9-14.4c-10.8,0-21.6,1.1-33,2.3
			c-3.7,0.4-7.6,0.8-11.5,1.2c-3.2-0.5-10.8-6.6-14.5-9.6C1567.2-78.9,1560-84.6,1551-84.6L1551-84.6z"/>
	</g>
	<path class="st4" d="M1676,952.2c-1.7,6.5,1.9,21.6-3.6,24.8c-24,13.9-47.3,29-69.5,45.7c-15.8,12-30.4,25.2-44.1,39.5
		c-2.6,2.7-5.4,4.9-9.2,5.7c-0.6-21.1,8.1-38.2,22.6-52.9c9-9.1,19.1-17,28.8-25.3c2.8-2.2,5.5-4.3,8.3-6.5c3.3-2.1,6.4-4.4,9.3-7.1
		c7.3-5.5,14.5-10.9,21.8-16.4c2.4,2.8,4.8,1.8,7.5,0.2C1656.6,955.1,1665.5,950.6,1676,952.2z"/>
	<path class="st5" d="M1597.4,989.9c25-19.4,74.6-143.7,74-177.7c-0.3-19.6,66.4-33.3,66.6-52.9c0-3.9,1.5-3.6,4.2-2.6
		c11.4,4.6,20.3,12.7,28.6,21.5c11.9,12.7,21.8,26.8,29,42.7c4.9,10.7,5.7,22.5,7,34c4.7,42.1,0.3,83.5-10.2,124.3
		c-1.9,7.2-4,14.3-6.8,21.3c-3.7,9.4-6.4,11.1-16.1,7.9c-12.1-3.9-24-8.4-36-12.7c-20.9-7.4-41.8-14.8-63.8-18.5"/>
	<g>
		<path class="st7" d="M1548.7,1036c-2.8,0-6.9-1.1-10.3-6.3c-0.2-0.3-0.3-0.5-0.5-0.8c-0.6-1.2-1.9-2.5-3.3-3.9
			c-0.2-0.2-0.4-0.4-0.5-0.6l-3.3-3.8c-0.2-0.2-0.4-0.5-0.5-0.7c-1.7-2.4-3.9-4.6-6.4-6.9c-0.1-0.1-0.2-0.2-0.3-0.3l-4.6-4.7
			c-8-8.3-15.8-15.4-23.9-22l-0.6-0.4c-0.2-0.1-0.4-0.3-0.7-0.5l-50.5-40.5c-0.2-0.2-0.5-0.4-0.7-0.6l-18.2-17.6
			c-0.1-0.1-0.2-0.2-0.2-0.2l-1.9-2c-0.1-0.1-1.2-1.3-1.2-1.4c0,0-0.9-1-0.9-1l-9.2-10.8c-0.1-0.2-0.3-0.3-0.4-0.5l-0.8-1
			c-0.1-0.1-0.1-0.2-0.2-0.2l-1.5-2.1l-4.4-5.8c-0.1-0.1-0.2-0.3-0.3-0.5c-8.4-12.9-17.6-28.5-22.4-46.9c-2-8-3-15.3-3-22.4
			c0.2-20.5,0.3-41.4,0.4-61.6l0.1-21.8c0-1.1,0-2.2,0-3.4l0-1.9c0-2.7,1.2-5.2,3.4-6.8c1.5-1.1,3.3-1.7,5.1-1.7
			c0.8,0,1.5,0.1,2.3,0.3c4.6,1.3,7.2,4,8.7,5.6c0.2,0.2,0.5,0.5,0.7,0.7c15.2,14.3,35.8,32.4,60.1,46c28.6,16.1,59.5,24,94.3,24
			c5.8,0,11.9-0.2,17.9-0.7c41.7-3.1,80.1-20.6,117.5-53.3c9.9-8.6,19.4-17.7,29.2-27.1c1.6-1.5,3.7-2.4,5.9-2.4
			c1,0,1.9,0.2,2.8,0.5c3,1.1,5.2,3.8,5.6,7c0.8,6.7,0.6,12.8,0.3,18.7c-0.1,2.3-0.2,4.5-0.2,6.7c-0.2,24.5-0.6,48.7-1.2,72
			c-0.5,19.4-8.9,35.9-16.7,49.8c-3.1,5.6-6.7,10.8-10.2,15.9c-1.5,2.2-3,4.5-4.5,6.7c-0.1,0.1-0.1,0.2-0.2,0.3l-1.2,1.7
			c-0.3,0.5-0.7,0.9-1.2,1.3c-1.5,1.3-2.8,3-4.4,5.5c-0.2,0.4-0.5,0.7-0.8,1c-16.1,18.2-33.2,34.6-50.6,48.7c-0.4,0.3-2,1.6-7,5.5
			c-11.2,8.7-45.4,35.2-48.6,38.2c-0.3,0.3-0.7,0.6-1.1,0.9c-9,6.4-17.6,14-25.7,22.6C1557.3,1032.4,1553.9,1036,1548.7,1036
			C1548.7,1036,1548.7,1036,1548.7,1036z"/>
		<path class="st1" d="M1723.6,736.2c1.1,8.6,0.1,16.4,0,24.3c-0.2,24-0.6,48-1.2,71.9c-0.4,16.8-7.6,31.6-15.6,45.8
			c-4.3,7.7-9.6,14.8-14.4,22.2c-0.4,0.6-0.8,1.1-1.2,1.7c-2.3,2.1-4.2,4.6-5.9,7.3c-15.2,17.2-31.7,33.3-49.6,47.7
			c-1.6,1.3-53.8,41.6-56.3,44.3c-9.8,7-18.7,15-26.9,23.7c-1.5,1.6-2.7,2.5-3.8,2.5c-1,0-2-0.8-3.2-2.5c-1.2-2.4-3.1-4.3-5-6.2
			c-1.1-1.3-2.2-2.6-3.3-3.8c-2.2-3.1-4.9-5.7-7.6-8.3c-1.5-1.6-3-3.1-4.6-4.7c-7.8-8-16-15.7-24.7-22.7c-0.4-0.3-0.8-0.6-1.1-0.8
			c0,0,0,0,0,0c-16.8-13.5-33.7-27-50.5-40.4l-0.1-0.1c-6.1-5.9-12.2-11.8-18.3-17.7c-0.6-0.7-1.3-1.3-1.9-2c-0.3-0.4-0.7-0.8-1-1.1
			c-0.3-0.3-0.6-0.6-0.8-0.9c-3.1-3.6-6.2-7.2-9.2-10.8c0,0-0.1-0.1-0.1-0.1c-0.3-0.4-0.6-0.7-0.9-1.1c-0.5-0.7-1-1.4-1.5-2.1
			c-1.5-2-2.9-3.9-4.4-5.9c-9-13.8-17.1-28.2-21.2-44.3c-1.7-6.6-2.7-13.3-2.7-20.2c0.2-27.8,0.3-55.6,0.5-83.4c0-1.6,0-3.2,0-5.4
			c3,0.8,4.3,2.8,5.9,4.3c19,17.8,38.9,34.4,61.7,47.2c31,17.4,63.9,25.1,98.5,25.1c6.1,0,12.3-0.2,18.6-0.7
			c47.5-3.6,87.2-24.5,122.5-55.4C1704,754.9,1713.5,745.9,1723.6,736.2 M1723.6,719.2c-4.3,0-8.5,1.6-11.8,4.7
			c-9.7,9.3-19.2,18.3-28.9,26.8c-36,31.5-72.8,48.2-112.5,51.2c-5.8,0.4-11.7,0.7-17.3,0.7c-33.3,0-62.8-7.5-90.1-22.9
			c-23.4-13.2-43.5-30.9-58.4-44.8c-0.1-0.1-0.2-0.3-0.4-0.4c-1.9-2-5.8-6.1-12.6-8c-1.5-0.4-3-0.6-4.5-0.6c-3.7,0-7.3,1.2-10.3,3.5
			c-4.2,3.2-6.7,8.2-6.7,13.5l0,2c0,1.2,0,2.2,0,3.3c0,7.3-0.1,14.5-0.1,21.8c-0.1,20.2-0.2,41.1-0.4,61.6c-0.1,7.9,1,15.9,3.2,24.6
			c5,19.6,14.7,36,23.5,49.4c0.2,0.3,0.4,0.6,0.6,0.9l2.2,2.9l2.2,2.9l0.8,1.1l0.6,0.9c0.1,0.2,0.3,0.3,0.4,0.5l0.6,0.7l0.1,0.1
			c0.2,0.3,0.4,0.6,0.7,0.8l3.4,4l5.9,6.8c0.1,0.1,0.1,0.2,0.2,0.2l0.5,0.6l0.3,0.3c0,0,0.1,0.1,0.1,0.1l0.5,0.6l0.5,0.6
			c0.1,0.1,0.2,0.2,0.3,0.3l1.9,2c0.2,0.2,0.3,0.3,0.5,0.5l16.7,16.1l1.5,1.4c0.4,0.4,0.9,0.8,1.4,1.2l28.8,23.1l21.7,17.4
			c0.3,0.3,0.7,0.5,1.1,0.8l0.3,0.2c7.7,6.3,15.2,13.2,23,21.2l4.6,4.7c0.2,0.2,0.4,0.4,0.5,0.5c2.1,2,4.1,3.9,5.2,5.6
			c0.3,0.5,0.7,0.9,1.1,1.4l1.6,1.9l1.6,1.9c0.3,0.4,0.7,0.8,1,1.1c0.4,0.4,1.4,1.4,1.8,1.9c0.2,0.5,0.5,0.9,0.8,1.4
			c5.8,8.9,13.4,10.2,17.4,10.2c8.8,0,14.4-5.9,16.2-7.8c7.7-8.2,15.9-15.4,24.5-21.5c0.7-0.5,1.3-1,1.9-1.6
			c4.2-3.7,37.1-29.3,48-37.7c5.4-4.2,6.7-5.2,7.2-5.6c17.8-14.4,35.2-31.1,51.6-49.7c0.6-0.7,1.1-1.4,1.6-2.1c1.2-1.8,2.1-3,3-3.8
			c0.9-0.8,1.7-1.7,2.4-2.6l1.2-1.7c0.2-0.2,0.3-0.4,0.5-0.7c1.4-2.2,2.9-4.3,4.4-6.6c3.5-5.2,7.2-10.6,10.5-16.5
			c8.3-14.8,17.3-32.4,17.8-53.8c0.6-23.4,1-47.7,1.2-72.2c0-2,0.1-4.2,0.2-6.5c0.3-5.9,0.5-12.6-0.4-20.1
			c-0.8-6.4-5.1-11.8-11.2-13.9C1727.4,719.6,1725.5,719.2,1723.6,719.2L1723.6,719.2z"/>
	</g>
	<path class="st8" d="M1268.3,526.1c-9.1-7.5-16.3-16.4-21.7-26.9c-12.9-24.9-20.3-51.2-19.1-79.5c0.3-7.4,1.9-14.5,5.2-21.2
		c5.3-10.6,13.4-16.7,25.7-16.2c4.3,0.6,7.2,3.1,9.2,6.8c0.7,1.3,1.5,2.6,2.5,3.8c7.5,9.7,10.1,20.6,10.5,32.9
		c1.1,32.8,3.9,65.5,7.5,98c0.1,0.8,0.3,1.6,0.5,2.4c0,0,0,0.4,0,0.4s0.3,0.2,0.3,0.2c-0.5,0.5-0.5,1-0.2,1.6
		c0.3,6.3,0.3,6.3-7.5,4.4c-2-0.8-3.9-1.6-5.9-2.4c-0.7-0.4-1.3-0.7-2-1.1C1271.7,528.3,1270,527.2,1268.3,526.1z"/>
	<path class="st8" d="M1840.8,381.3c11.9,0.3,19.8,6.3,24.9,16.8c6.2,12.9,6.1,26.4,4.7,40.1c-2.1,21.5-8,42-18.5,61.1
		c-4.8,8.7-11,16.2-17.9,23.2c-5.9,4.4-12.1,8.2-19.3,10.1c-3.1,0.8-4.2,0.4-3.8-3.1c4.5-39.5,7.1-79.1,7.9-118.9
		c0-1.9,0.8-3.5,1.7-5.1c3.3-5.4,6.8-10.7,9.7-16.2C1832.7,384.9,1835.7,381.9,1840.8,381.3z"/>
	<path class="st2" d="M1846.4,535.8c0.6-0.5,1.2-0.9,1.8-1.4C1847.6,534.9,1847,535.4,1846.4,535.8z"/>
	<g>
		<path class="st7" d="M1553,820.8c-20.9,0-41.1-2.9-60.2-8.6c-25.5-7.6-49.4-20.4-73-39.3c-32.6-26-59.3-52.9-81.5-82.3
			c-18.7-24.7-32.5-51.8-41.2-80.6c-0.1-0.2-0.2-0.5-0.3-0.7l-0.2-0.4c-0.1-0.3-0.2-0.6-0.3-0.9l-3.1-9.9c-0.1-0.3-0.2-0.6-0.2-0.9
			l-0.1-0.4c-0.6-3.2-1.3-6.4-1.9-9.5l-0.1-0.4c-1.5-7.5-3.1-15.2-4.5-23c-1-5.7-1.9-11.3-2.7-16.7c-0.4-2.4-0.7-4.8-1.1-7.1l0-0.2
			c0-0.1,0-0.3-0.1-0.5l-1.3-12.1c-0.1-0.6-0.1-1.3,0-1.9c-0.5-2.4-0.9-6,0.1-10.1c-3.7-24-6-47.9-6.9-71.2c-0.7-4.7-1-9.1-0.8-13.5
			c-0.7-8.9-1.4-18-1.1-27.6l0-1.7c0-16.6,0.5-36.3,3.5-56.5c0.2-1.5,0.4-3,0.6-4.5l0-0.1c1-7.2,2.2-16.1,5.8-24.8l0.7-2.1
			c3.6-11.7,9.2-21.6,14.7-30.6l2.6-4.5c0.7-1.6,0.9-5,1-8c0.1-1.9,0.2-4.2,0.4-6.6c-0.2-2.5-0.1-5.1,0.3-7.8
			c0.1-19.2,1.4-41.8,9.7-63.8c7.6-20.1,19.5-35.7,35.4-46.6c14.7-10,32.9-16,54.2-17.7c3.5-0.3,7.1-0.4,11-0.4
			c7.9,0,15.4,0.6,22.3,1.2c1.8,0.2,4.5,0.5,7.5,1.6c13.1,5,26.7,7.4,41.6,7.4c12.4,0,25.6-1.7,40.4-5.1c9.2-2.1,18.7-4.8,27.8-7.5
			c11.7-3.4,23.9-6.8,36.4-9.4c16.4-3.4,31.5-5,46.2-5c22.2,0,42.5,3.7,62.2,11.3c39.1,15.1,64.4,40,77.3,76
			c4.4,12.3,6,24.4,7.5,36.1l0,0.2c0.3,2.6,0.7,5.1,1,7.7c1.5,10.7,5.3,19.9,11.6,28.4c10.8,14.4,18.4,30.4,22.8,47.5
			c0.6,2.5,0.8,4.8,0.9,6.3c0.1,0.3,0.2,0.6,0.3,0.9l0.3,1.2c3.6,13.2,4.7,26.3,5.9,38.9c0,0,0.3,3.5,0.4,4.8
			c2.6,27.3,2.3,57.1-0.8,91.1c-0.6,6.6-1.5,13.1-2.4,19.3c-0.1,1-0.3,1.9-0.4,2.9c0.8,2.8,1,5.9,0.7,9.2l0,0.4
			c-0.3,3.5-0.7,7.1-1,10.8l0,0.2c-3.5,36.8-7.1,75-18.2,112.2c-6.7,22.5-21.1,36.1-35.1,49.2c-6.8,6.4-13.8,13-20,20.7
			c-6.9,8.5-12.8,19.4-19,30.8c-9.9,18.2-20.1,37.1-36.3,50.6c-15.1,12.6-29.5,22.6-44.2,30.5c-21.5,11.6-44.1,18.8-67.2,21.4
			C1571.6,820.2,1562.1,820.8,1553,820.8z"/>
		<path class="st1" d="M1634.8,119c21.1,0,40.4,3.5,59.1,10.7c36.7,14.2,60.3,37.4,72.3,70.9c4.1,11.4,5.6,23.1,7.1,34.3l0,0.2
			c0.3,2.6,0.7,5.2,1.1,7.8c1.7,12.1,6.1,22.6,13.2,32.2c10.1,13.5,17.3,28.5,21.4,44.6c0.5,1.9,0.6,3.7,0.6,5.1
			c0,0.5,0.1,1.2,0.1,1.5l0.5,0.8l0.3,1.2c3.4,12.5,4.5,25.2,5.6,37.5c0.2,1.6,0.3,3.2,0.4,4.8c2.5,26.8,2.3,56.1-0.8,89.6
			c-0.6,6.4-1.5,12.8-2.3,18.9c-0.2,1.7-0.5,3.3-0.7,5c0.9,2.1,1.3,4.5,0.9,7.4l0,0.4c-0.3,3.6-0.7,7.2-1,10.9l0,0.1
			c-3.5,36.5-7,74.2-17.9,110.6c-9.2,30.6-34,42.9-53.6,67c-18.4,22.7-29.2,59.4-54.1,80.3c-14.6,12.2-28.6,21.9-42.8,29.6
			c-20.5,11.1-42.1,18-64.1,20.5c-9.2,1-18.3,1.6-27.1,1.6c-20.1,0-39.5-2.8-57.8-8.2c-24.4-7.3-47.4-19.6-70.2-37.8
			c-32.1-25.6-58.3-52-80-80.7c-18.2-24.1-31.7-50.5-40.1-78.6c0-0.1-0.1-0.1-0.1-0.2c-0.1-0.3-0.3-0.6-0.4-0.9l-0.2-0.4l-3.1-9.9
			l-0.1-0.4c-0.7-3.3-1.3-6.5-2-9.8c-1.5-7.5-3.1-15.2-4.5-22.9c-1-5.5-1.8-11.1-2.6-16.5c-0.4-2.4-0.7-4.8-1.1-7.2l0-0.2l-1.3-12.1
			l0.3-0.8c0-0.2-0.1-0.3-0.1-0.4c-0.4-1.8-1.3-5.4,0.1-9.3c-3.9-24.5-6.3-48.9-7.1-72.6c-0.7-4.5-1-8.7-0.7-12.8l0-0.5
			c-0.7-8.7-1.4-17.6-1-26.7l0-1.8c0-16.3,0.4-35.6,3.4-55.3c0.2-1.5,0.4-3.1,0.6-4.6l0-0.1c1-7.2,2.1-15.3,5.3-23l0.8-2.5
			c3.3-10.8,8.6-20.2,13.9-28.8l2.8-4.9c1.6-3.2,1.8-7.3,2-11.6c0.1-2.2,0.2-4.6,0.5-7c-0.3-2.2-0.2-4.6,0.3-7
			c0.1-18.8,1.3-40.7,9.2-61.6c6.9-18.4,17.8-32.7,32.2-42.6c13.5-9.2,30.3-14.7,50.1-16.2c3.3-0.3,6.7-0.4,10.3-0.4
			c7.5,0,14.8,0.6,21.6,1.2c1.3,0.1,3.2,0.4,5.2,1.1c14,5.4,28.6,8,44.6,8c0,0,0,0,0,0c13.1,0,26.9-1.7,42.4-5.3
			c9.4-2.2,19-4.9,28.2-7.6c11.6-3.3,23.6-6.7,35.7-9.2C1606,120.6,1620.6,119,1634.8,119 M1634.8,102c-15.3,0-31,1.7-48,5.2
			c-12.8,2.6-25.1,6.2-37,9.5c-9.1,2.6-18.4,5.3-27.4,7.4c-14.2,3.3-26.8,4.9-38.5,4.9c-13.9,0-26.5-2.2-38.6-6.8
			c-3-1.1-6.1-1.8-9.7-2.2c-7.1-0.6-14.9-1.2-23.1-1.2c-4.1,0-7.9,0.1-11.7,0.4c-22.8,1.8-42.4,8.3-58.3,19.2
			c-17.4,11.9-30.3,28.9-38.5,50.6c-8.7,23-10.1,46.3-10.3,66.1c-0.4,2.8-0.5,5.6-0.4,8.4c-0.2,2.4-0.3,4.5-0.4,6.4
			c-0.1,1.6-0.2,3.9-0.4,5l-2.1,3.6c-5.8,9.4-11.6,19.8-15.5,32.3l-0.6,1.8c-3.9,9.5-5.2,18.9-6.2,26.5l0,0.2
			c-0.2,1.4-0.4,2.9-0.6,4.3c-3.1,20.7-3.6,40.8-3.6,57.8l0,1.5c-0.4,9.8,0.3,19,1,27.9c-0.2,4.6,0.1,9.3,0.8,14.2
			c0.8,22.9,3.1,46.5,6.7,70.2c-0.8,4.3-0.4,8.1,0,10.8c0,0.8,0,1.5,0.1,2.3l1.3,12.1c0,0.3,0.1,0.6,0.1,0.9l0,0.2
			c0.4,2.3,0.7,4.7,1.1,7l0,0.1c0.8,5.5,1.7,11.2,2.7,17c1.4,7.8,3,15.6,4.5,23.1l0,0.1l0.1,0.3c0.6,3.1,1.3,6.3,1.9,9.5l0.1,0.4
			c0.1,0.6,0.3,1.2,0.5,1.8l3.1,9.9c0.2,0.6,0.4,1.2,0.7,1.8l0.2,0.4c0,0,0,0,0,0.1c0,0.1,0.1,0.2,0.1,0.3
			c9,29.6,23.3,57.4,42.4,82.7c22.6,29.9,49.8,57.3,83,83.8c24.5,19.5,49.3,32.9,75.9,40.8c19.9,5.9,40.9,8.9,62.6,8.9
			c9.4,0,19.2-0.6,29-1.7c24.2-2.7,47.8-10.3,70.3-22.4c15.2-8.2,30.1-18.5,45.6-31.5c17.4-14.6,28.5-35,38.3-53.1
			c6-11.1,11.7-21.7,18.1-29.5c5.9-7.2,12.4-13.4,19.2-19.8c14.8-13.9,30-28.3,37.4-53c11.4-38,15-76.5,18.6-113.8l0-0.1
			c0,0,0-0.1,0-0.1c0.3-3.6,0.7-7.2,1-10.7l0-0.3c0.4-3.7,0.2-7.2-0.5-10.6c0.1-0.4,0.1-0.8,0.2-1.2c0.9-6.4,1.8-12.9,2.4-19.7
			c3.1-34.5,3.4-64.9,0.8-92.7c-0.1-1.2-0.2-2.4-0.3-3.6l-0.1-1.1c-1.2-13-2.4-26.4-6.1-40.3c0,0,0-0.1,0-0.1l-0.3-1.2
			c0-0.1,0-0.2-0.1-0.2c-0.1-1.8-0.4-4.1-1.1-6.8c-4.6-18.2-12.8-35.2-24.2-50.5c-5.5-7.3-8.7-15.1-10-24.5c-0.4-2.6-0.7-5.2-1-7.6
			c0,0,0,0,0-0.1l0-0.2c-1.5-11.6-3.2-24.7-7.9-37.8c-6.8-19.1-17.3-35.7-31-49.1c-13.5-13.3-30.8-24-51.2-31.9
			C1679.4,105.9,1658,102,1634.8,102L1634.8,102z"/>
	</g>
	<path class="st9" d="M1434.1,582.9c2.7-2.5,5.6-4.3,9.5-4.1c1.8,0.1,3.2-0.9,4.7-1.8c4.2-2.6,7.6-6.3,13.5-5.3
		c3.3,0.5,6.2-2.5,8.9-4.4c2.3-1.7,4.7-2.6,7.6-2.3c1.6,2.2,2.5,0.2,3.5-0.6c3.8-2.6,7.6-4.8,12.5-4c2.6,0.4,4.4-2.2,6.8-2.8
		c4.7-3,10.5-1.1,15.3-3.8c8.2,2.3,16.9,0.7,25,3.6c1.6,0.6,3,0.3,4.5-0.1c9.5-1.9,19.1-5.4,28.8-0.6c6.3-3,11.1,3.6,15.8,3.1
		c7.6-0.8,12.4,4.8,18.4,5.2c7.5,0.5,12.5,4.5,18.3,7.5c1,0.5,1.8,0.8,2.8,0c2.1-1.5,2.4,4,5.8,6.2c8.2,5.3,1.8,12,8.5,20.4
		c7.2,9.1,44.6,36.6,45.1,67.6c0.1,1.9,0,3.8,0.2,5.7c0.1,1.3-0.3,3,1.7,3.2c1.4,0.2,2.8,0.2,3.8-1c1.1-1.3,2.1-2.7,3.2-4
		c0.9-1,2-2.9,2.8-2.8c7,0.8,7.1-5.3,9.6-9.1c1.7-2.6,2.6-5.8,6.9-4.4c1.5,0.5,1.9-1.2,2.5-2.1c1.6-2.8,2.9-5.9,4.8-8.6
		c1.7-2.5,2.5-7.1,7.6-3.9c1.5,0.9,1.9-1.5,2.5-2.6c3.2-6.3,6.2-12.7,9.4-18.9c1.4-2.7,2.9-5.6,6.5-2.3c1.6,1.5,2-0.5,2.5-1.3
		c2.4-4.4,4.6-8.8,7-13.2c1.3-2.4,2.6-5.3,6.3-3c1.5,0.9,1.8-0.5,2.3-1.2c8.6-13.8,16.9-27.8,23.4-42.8c9.1-21,15.6-42.7,19.5-65.2
		c0.1-0.5,0.5-0.9,0.8-1.3c2.1,2,1.2,4.6,1,6.8c-2.3,22-4.1,44.1-7.1,66c-9,79.2-28.5,78.2-65.1,119.8
		c-26.1,29.7-24.2,68.6-82.2,104.8c-30.7,20.4-64.5,30.6-101.5,31c-32.8,0.4-63.9-5.7-93.1-20.7c-18.7-9.6-35.6-22.1-51.5-35.9
		c-14.1-12.3-27.7-25.2-40.6-38.8c-27.1-28.6-49.5-60.3-62.8-97.7c-7.3-20.6-12.3-41.8-15.3-63.5c-0.8-6.1-2-12.2-3-18.3
		c-0.4-3.4-0.7-6.9-1.1-10.3c0.9-4.1-2.2-8.2-0.1-12.4c1.2,0.7,0.9,2,1.3,3.1c1,5.6,2.1,11.2,4,16.5c-0.4,2.2,1,4.1,1.2,6.2
		c0.3,0.4,0.5,0.8,0.8,1.2c0,0-0.1,0-0.1,0c0.9,2.7,1.9,5.4,2.8,8.2c4.1,13.3,10.9,25.2,18.1,37c0.3,0.5,0.6,0.9,0.9,1.4
		c0,0.2,0,0.5,0.2,0.7c0.3,0.4,0.6,0.8,0.9,1.2c0,0-0.1,0-0.1,0c1.3,5,5.1,5.5,9.3,5.3c0.4,0.6,0.8,1.2,1.2,1.8
		c0.3,0.4,0.6,0.9,0.9,1.3c1.4,3.1,2.7,6.2,4.3,9.2c1.4,2.6,2.6,5.4,6.7,4c2.6-0.8,3.6,1.8,4.8,3.8c3.5,6,5.2,12.8,9.2,18.5
		c0.6,0.8,1.5,2.3,1.8,2.2c7.5-2.9,7.5,4.3,10.4,7.5c0.2,0.3,0.4,0.5,0.6,0.8c0.5,1.6,1.2,3.2,2.4,4.4c0.1,1.5,1,3.3,2.3,2.8
		c4.8-2,5.3,2,7,4.5c2,3.1,2.3,7.8,8.1,7.3c2.2-0.2,3.2,3.7,5,5.5c1.5,1.4,2.8,3.2,5.3,2.4c2.4-0.8,0.9-3,1.4-4.4
		c1.3-3.9,0.3-7.7,0.2-11.6c0-9.7,1.2-19.3,1.6-29c0.3-7.7,2.5-14.9,5.3-22c2.4-5.5,6.3-10.2,9.6-15.2l-0.1-0.3c0,0,0.1,0.3,0.1,0.3
		c1.7-1.1,3.3-2.4,4-4.4c1.3-0.8,2.6-1.5,4-2.3C1429.4,587.8,1431.8,585.5,1434.1,582.9z M1629.2,745.7c2.9,1.2,4.1-0.7,5.1-2
		c3.6-4.5,8-8.3,11.8-12.7c2.6-3,7.5-3.9,8.7-8.7c0.5-2.1,1.6-4.1,2.5-6.2c0.5-1.3,1-3,2.5-3c3.4-0.1,3.4-2.8,4.2-4.9
		c1.2-3.2,2.5-6.4,3.4-9.5c1.8-6.3,2.9-13.6,2.5-19.6c-1-13-3.8-26.1-8.3-38.8c-44.8-43.8-42.2-26.1-46.3-27.5
		c-1.3-0.5-2.7-2-3.7-1.7c-6.8,1.8-11.8-2.5-17.5-4.5c-0.9-0.3-2.4-1.1-2.9-0.7c-4,2.9-7.5-0.1-11.3-0.5c-4.3-0.5-8.2-2.4-12.6-2.8
		c-5.5-0.5-11.5,1.4-16.8-1.7c-4.5-2.6-8.8-2.3-13.6-0.2c-6.9,3.1-14.7,2.6-22,3.8c-6.5,1-12.9,3.9-20.2,3.1
		c-5.1-0.6-10.4,4.1-16.7,4.4c-5.3,0.3-10.1,4.1-16.1,4.8c-5.6,0.7-11,5-16.7,7.3c-7,2.9-13.5,8.4-15.7,17.1
		c-1.4,5.7-4,10.8-4.8,16.9c-1.5,10.6-5,20.6-2.2,31.8c1.7,6.9,4,13.6,5.4,20.6c0.7,3.6,4.8,2.2,5.9,4.9c2.5,5.8,3.9,12,10.9,15.3
		c3.1,1.4,4.8,6.1,8.6,8.5c4.7,2.9,7.1,8.5,14.2,9.3c4.6,0.5,8.5,5.2,14.4,5.8c5.1,0.5,10.2,3.2,15.7,4.3c6.5,1.3,13.3-0.1,19.5,2.6
		c0.9,0.4,2.1,0.2,3,0c8.7-1.8,17.7-0.1,26.5-1.5c3.2-0.5,6.3,2.1,9.6,0.8c3.4-1.3,6.8-0.8,10.1,0.3c1.8,0.6,3.6,1.1,5.5,0.5
		c7.5-2.4,15.5-1.9,23.2-3.4c5-1,9.6-2.1,14-4.5c0.9-0.5,2.2-1.1,2.9-0.7c4.6,2,7.3-1.2,10.4-3.6
		C1624.6,747.6,1626.5,745.3,1629.2,745.7z"/>
	<path class="st10" d="M1419.2,439.4c-2-0.8-4.3,0.1-6.2-1.2c-3.4-1.8-6.8-3.5-10.3-5.3c-1.3-1.4-2.6-2.7-3.9-4.1
		c-1.7-3.3-3.4-6.5-5.2-9.8c-7.5-24.1,9.1-46.6,32.7-44.8c5.5,1.1,10.8,2.9,15.4,6.4c1.4,1.3,2.7,2.6,4.1,3.9
		c2.1,3.1,4.1,6.2,6.2,9.3c2,8.2,3.3,16.4,0,24.6c-3.9,9.7-10.7,16.3-20.4,20.1C1427.5,439.4,1423.3,439.4,1419.2,439.4z"/>
	<path class="st3" d="M1532.7,541.7c-8.7-1-16.3-5.2-24.6-7.6c-2-4-7.4-4.8-8.7-9.4c-0.8-3.3-1-6.8,2.5-8.5
		c3.6-1.8,7.2-0.9,10.5,1.5c9.3,6.8,19.7,9.8,31.1,9.3c5.7-0.3,11.4-1.2,16.1-5c5.5-1.5,8.3-5.5,10.3-10.5c1.2-1.9,2.2-3.8,1.8-6.2
		c0.7-2.8,0.7-5.7-0.1-8.5c0.1-0.3,0.1-0.6,0-0.9c-0.2-4-1.5-7.8-3-11.5c-0.4-1-0.8-1.9-1.2-2.9c-0.2-0.7-0.4-1.4-0.7-2.1
		c-0.2-0.4-0.4-0.8-0.6-1.2c0.8-2.1-2.4-1.5-2.3-3.4c0.5-6.4-3.5-11.4-5.3-17.2c-2.4-2.7-0.3-5.3,1.1-7.1c2-2.6,5.3-2.3,8.3-1.4
		c1,0.8,1.9,1.7,2.9,2.5c1.2,6.6,4.6,12.4,7.3,18.4c3.1,7.1,5.9,14.2,7.5,21.8c5.4,25.4-9.6,46.4-35.5,49.6c-1.3,0.2-2.7,0.5-4,0.8
		C1541.7,542.2,1537.2,541.9,1532.7,541.7z"/>
	<path class="st11" d="M1564.1,477.7c0.2,0.7,0.4,1.4,0.7,2.1C1563.6,479.4,1563,478.8,1564.1,477.7z"/>
	<path class="st6" d="M1580.2,690.9c-0.9,3.1,0.8,7.9-4.5,10.2c-1,0.4-1,2.8-1.7,4.1c-1.9,3.8-2.5,8.8-8.6,8.7c-1,0-1.9,1.7-2.9,2.7
		c-1.9,1.7-3.4,4.1-6.5,3c-1.3-0.5-1.9,0.3-2.6,1c-3.9,3.4-7.3,1-11.5,0.4c-5.7-0.9-8.3-6.4-14.1-6.4c-2.9,0-4.2-3.7-5.6-6.3
		c-1.7-3-2.2-6.4-5.1-9.1c-3.4-3.3-2.5-15.3,0.5-19.2c0.9-1.1,2.2-2.5,3.3-2.1c5.7,2.3,11.3-0.7,17.1,0c5.8,0.8,12.2,0.6,18.1,0
		c6.2-0.7,12.1,1.5,18.2-0.1c1.9-0.5,3.3,1.6,4.1,3.4C1579.7,683.9,1580.3,686.9,1580.2,690.9z"/>
	<g id="eyebrow_2_">
		<path class="st15" d="M1405.8,337.4c-1.4,0-2.8,0.1-4.1,0.1c-19.9,1.5-39,6.2-57.3,14.1c-3.4,1.5-7,3.9-10.5,0.5
			c-3.3-3.3,8-17.4,14.2-22.3c10.6-9.6,18.3-15.7,23.5-17.5c16.8-5.4,39.6-7.1,61.1-7.3c15.7,0.4,30.8-2.1,46.1,1.7
			c11,2.7,17.7,17.8,15.1,28.8c-0.7,3-2.2,5.4-4.5,7.4c-2.4,0.5-4.8,0.9-7.2,1.4c-2.8,0.2-5.3-1.9-8.2-1.2c-0.8-1.3-1.9-1.3-3.2-0.8
			c-1-0.1-2-0.2-3-0.3c-0.8-1.4-2-1.2-3.2-0.8c-0.7,0-1.4,0-2.1,0c-2.6-1.8-5.4-1.4-8.3-1.1c-0.6-0.1-1.3-0.2-1.9-0.4
			c-0.5-1.1-1.2-1.2-2.2-0.7c-2.4-0.1-4.7-0.2-7.1-0.3c-1.4-2-3.4-1.2-5.3-1.1c-0.7-0.1-1.4-0.2-2.1-0.4
			C1425.7,336.8,1415.8,336.5,1405.8,337.4z"/>
		<path class="st15" d="M1766.8,353c2.9,3.6-18-7.1-48.5-14.3c-20.7-4.8-40.4-2-46.1-1.9c-1.5,0-3.1-0.5-4.3,1.1
			c-3.1,0.1-6.2,0.2-9.2,0.2c-1.3-0.7-2.4-0.8-3.2,0.7c-2.7,0.1-5.4,0.2-8.1,0.4c-1.2-0.4-2.4-0.6-3.2,0.7c-1.3,0.1-2.7,0.3-4,0.4
			c-1.1-0.2-2.4-0.9-3.2,0.6c-1,0.1-2,0.3-3,0.4c-1.2-0.2-2.4-0.9-3.2,0.6c-1.3,0.1-2.7,0.2-4,0.3c-1-0.5-1.7-0.3-2.2,0.7
			c-1,0.1-2,0.3-3,0.4c-1.2-0.2-2.4-0.8-3.2,0.7c-1,0.1-2,0.1-3,0.2c-1.4-0.8-2.1,0.5-3.1,1c-8.6-4.3-10.5-7.4-9.8-15.3
			c0.8-8.7,7.7-22.9,16.9-25.1c34.2-8.1,75.8,0.8,96.8,5.7c12.5,2.9,24.2,11.5,33,18.8C1751.3,331.2,1769.4,348.4,1766.8,353z"/>
	</g>
	<path class="st16" d="M1604.4,324.4c0-6.8,5-12.5,11.6-11.5c15.4,2.4,30.1-1.6,45-4c20.1-3.2,40.3-5.3,60.4-0.4
		c11.2,2.8,21.2,7.7,29.5,15.9c1.8,1.8,3.5,3.6,4.2,6.1c1.8,5.5-1.8,9.9-7.2,8.2c-32.6-10.5-64.8-5.5-96.9,2.3
		c-9.4,2.3-18.8,4.2-28.6,2.5C1612.3,342,1604.4,333.6,1604.4,324.4z"/>
	<path class="st17" d="M1542.8,612.4c13.9-0.5,26.2,2.3,36.4,11.2c9.3,8.2,13.8,19.1,15.5,31c0.8,5.6-4.6,9.1-10.6,7.2
		c-7.8-2.5-15.5-5-23.5-6.5c-22.8-4.1-45.3-2.5-67.6,3.9c-6.7,1.9-13.4,4.1-20,6.3c-3.3,1.1-6.4,1.1-8.7-1.6
		c-2.3-2.8-1.6-5.8,0.2-8.8c13.4-23.1,34.7-34.6,59.7-40.6C1530.6,613,1537,611.9,1542.8,612.4z M1480.6,651.9
		c23.5-7.8,47.5-11.4,72.2-9c9,1.4,18,2.7,26.5,6.4c1,0.4,2.2,1.4,3.2,0.2c0.8-1,0.3-2.2-0.2-3.3c-1.7-3.4-3-7-5.7-9.8
		c-5.3-7.3-12.7-11-21.4-12.4c-15.4-2.4-30.1,0.3-44.4,5.9c-11.9,4.7-22.6,11.1-30.7,21.3c-0.2,0.2-0.7,0.6-0.6,0.6
		C1479.7,652.5,1480.2,652.2,1480.6,651.9z"/>
	<path class="st18" d="M1673.9,392.1c17-1.4,33.5,0.7,49.4,7.2c2.5,1,4.8,2.3,6.1,4.9c1.5,3.2,1.3,6.2-1.1,8.8
		c-2.5,2.8-5.7,3-9.2,1.7c-13.9-5.5-28.3-7.2-43.1-6.1c-9.8,0.7-19.4,2.6-28.7,5.9c-4.3,1.5-8.2,1.7-11.1-2.4
		c-2.9-4.1-1.4-7.8,1.4-11.4c14.8-19.3,34.9-29.8,58.2-35c4.5-1,9.2-1.6,13.8-2.1c6-0.6,10,2.4,10.3,7.5c0.3,5-3.2,8.5-9.2,9
		c-13.3,1.1-25.8,4.6-37.5,11.1c-0.4,0.2-1.1,0.7-1.1,0.7C1672.5,392.8,1673.2,392.3,1673.9,392.1z"/>
	<path class="st19" d="M1620.7,604.1c-2.8-1.8-4.5-4.7-6.6-7.2c2.1-6.5,1.5-13.1,0.4-19.5c-1.4-7.8-3.7-15.5-5.6-23.2
		c-0.5-1.9-1.1-3.8,1-4.8c1.9-1,2.8,1.1,4.2,1.9c2.2,1.2,2.3,5.8,5.4,4.5c1.6-0.7,1.9-4.3,2.8-6.7c11.9-32,32-56.5,64.4-69.3
		c6-2.4,12.3-4.1,18.9-3.9c2.1,0.1,4.8-0.6,5.2,2.4c0.3,2.8-2.1,3.3-4.3,3.9c-20.1,5.4-37.5,15.4-51.6,30.7
		c-17.3,18.9-27.2,41.5-31.9,66.5C1621.5,587.6,1621.3,595.9,1620.7,604.1z"/>
	<path class="st19" d="M1655.1,628.1c0.8-27.9,9-51.8,27.8-71.2c11.6-12,25.8-19,42.5-20.7c1.1-0.1,2.4-0.2,3.5,0.1
		c1.5,0.3,2.8,1.2,2.9,3c0,1.9-1.4,2.3-3,2.7c-14.8,3.3-27.7,10.4-38.3,21.2c-14.7,15-22.6,33.3-25.5,54c-2,14.3-1.2,28.5,1.8,42.5
		c0.4,1.8,0.7,4-1.4,4.8c-2.7,0.9-3.4-1.6-4-3.4C1657.4,650,1655.7,638.6,1655.1,628.1z"/>
	<path class="st19" d="M1628.9,708.4c-1.6-0.4-3.7,0.7-4.2-1.1c-0.5-1.6,1.4-2.4,2.5-3.3c3.8-3.4,9.5-4.7,10.8-10.8
		c0.3-1.4,2-2.3,3.6-0.7c2,2,4.5,4.4,2.1,7.2C1639.6,704.1,1635.1,708.1,1628.9,708.4z"/>
	<path class="st20" d="M1552.8,643c-24.7-2.4-48.7,1.1-72.2,9c-0.2-0.2-0.4-0.4-0.6-0.6c8.1-10.2,18.8-16.6,30.7-21.3
		c14.3-5.6,29-8.3,44.4-5.9c8.7,1.4,16.1,5,21.4,12.4c-1.8,1.2-3.8,0.7-5.7,1C1564.5,638.4,1558,638.6,1552.8,643z"/>
</g>
<g id="punch_1_">
	<g class="st13">
		<path class="st21" d="M1072.3,567.2c1-0.5,1.9-0.9,2.9-1.4c5-2.7,11-1.5,16-4c8,2.4,16.7,0.6,24.6,3.6c1.7,0.7,3.2-0.2,4.9-0.4
			c9-1.4,17.9-5.1,26.9-0.3c6-2.8,10.7,3.3,15.4,2.9c7.2-0.5,12.1,4.7,18,5.1c7.1,0.4,11.7,4.3,17.3,7.1c0.9,0.4,1.8,1.1,2.8,0.4
			c2.4-1.5,4.5-0.3,6.5,0.8c3.7,1.9,8.2,3.2,11.1,5.1c7.8,5.1,17.9,6.2,24.3,13.9c7.3,8.7,11.3,18.7,13.2,29.8
			c2.2,13.4,1.9,26.9,2.4,40.4c0,1-0.2,2,0,3c0.5,2.3-1.1,5.5,1.9,6.6c3.5,1.3,4.7-2.1,6.5-4.2c1.6-1.9,2.6-4.9,6.3-3.3
			c1.2,0.5,1.9-1.1,2.4-2.1c1.5-2.6,2.9-5.2,4.3-7.9c0.7-1.3,1.4-3.4,2.9-3.2c6.1,1,6.4-4.3,8.6-7.5c1.2-1.8,2.2-3.8,3.3-5.6
			c0.7-1.2,2.1-2.6,3.2-1.9c4.4,2.6,4.8-1.3,5.9-3.5c2.6-5,4.8-10.3,7.5-15.2c1.4-2.6,2.3-7.1,7.1-3.2c1.4,1.2,1.9-0.8,2.3-1.6
			c2.2-3.9,4.2-8,6.3-11.9c1.3-2.4,2.3-5.4,6.3-3.5c2.1,1,2.4-1.4,3.1-2.4c19.7-29.8,33.3-62.2,39.6-97.5c0.4-2.1,0.5-4.3,1.6-6.2
			c1.9,1,1.5,2.9,1.3,4.4c-3.9,40.4-6.9,80.9-18.7,120c-8.8,29.3-22.5,55.8-41.7,79.6c-18.9,23.4-40.2,44.3-63.3,63.6
			c-12.9,10.8-26.5,20.6-41.4,28.6c-19.1,10.3-39.5,17.1-61,19.5c-27.5,3.1-54.7,1.6-81.5-6.3c-25-7.4-47.1-20.2-67.3-36.3
			c-29.3-23.3-55.9-49.3-78.5-79.2c-17.5-23.1-30.5-48.4-38.8-76.2c-0.2-0.6-0.5-1.2-0.8-1.8c-0.9-3-1.9-6-2.8-9
			c-2.1-10.8-4.4-21.7-6.4-32.5c-1.4-7.8-2.5-15.6-3.7-23.5c-0.4-3.3-0.7-6.6-1.1-10c1.2-3.3-2.3-6.8,0.5-10.1
			c3.4,11.7,5.2,23.9,10.1,35.3c5.7,13.4,12.3,26.4,20.1,38.7c0.9,1.5,1.4,3,4.1,2c4.1-1.5,4.1,3.4,6.2,5.1c0.5,1,1,2.1,1.5,3.1
			c0.2,0.6,0.5,1.2,0.7,1.9c1.6,4.9,4.7,7.1,9.9,6c0.3,0.3,0.6,0.7,1,1c2,4,4,8,6,12c0.8,3,2.4,5.5,4.2,8c0.8,2.2,1.4,4.4,4.4,2.1
			c1.1-0.9,2.4,0.2,3.5,0.9c0.5,0.7,1,1.5,1.5,2.2c1.6,3.1,3.3,6,4.6,9.2c1.4,3.2,3.2,4.6,6.6,2.8c0.4,0.3,0.8,0.6,1.1,1
			c1.1,2.2,2.1,4.4,3.3,6.5c1.3,2.4,1.9,5.5,6.1,4.5c1.6-0.4,2.3,2.1,3.6,3c0.7,1.6,1.8,2.9,3.3,3.9c1.1,1.2,1.9,3,3.9,2
			c1.7-0.8,1.8-2.6,1.8-4.3c0-6.9,0-13.8,0-20.7c0-0.3,0.1-0.7,0.1-1c0-2.3,0-4.7,0.1-7c0-0.7,0-1.4,0-2c1.4-9.3,1.6-18.8,5-27.8
			c3-7.9,7.1-15,13.4-20.6c2.1-1.8,4.1-3.3,7.3-3.6c3.4-0.2,5.6-3.8,8.3-5.9l-0.1,0c2.4-0.8,4.4-1.9,7.5-1.6c3,0.4,5.2-3.4,7.6-5.5
			c0.9-0.7,2.4-0.5,2.9-1.8c2.9-1.3,6.3,1.7,9-1c3.1-1,5.5-3.1,8-5.1c3.3-1,7.3,2,10-1.9C1062.9,567.6,1068.1,568.9,1072.3,567.2z
			 M998.6,682.3c-2.4,3.6,2.6,6.3,2.1,10.2c-0.9,7.7,3.2,14.3,5.1,21.5c0.2,0.8,0.7,2.1,1.2,2.1c5.6,0.6,5,5.9,7.1,9.1
			c1.7,2.7,1.9,6.9,6.7,6.7c0.7,0,1.6,1.5,2.2,2.5c3.8,6.5,11.1,9.5,15.7,15.3c0.3,0.3,1,0.7,1.3,0.6c4.2-1.8,6.3,1.8,9.1,3.6
			c1.3,0.8,2.9,2.3,3.9,2c4.7-1.6,7.9,1.7,11.6,3.2c1.4,0.6,3,1.6,4.2,1.3c6.1-1.5,12,1.1,17.8,1.7c9.3,1,18.3-0.3,27.5-0.4
			c7.9-0.1,15.9-0.2,23.6,0.6c7.8,0.9,15.2-0.1,22.5-1.3c7.5-1.3,16-0.3,22.3-6.1c0.3-0.3,1-0.4,1.4-0.3c5.1,2.1,7.9-1.6,11.3-4.2
			c1.3-1,3-2.7,4.2-2.4c4.9,1.2,6.8-2.6,9.1-5.3c3.1-3.6,6.2-7.8,9.9-10.2c3.2-2.1,5.3-4.1,7-7.2c2.1-3.7,1.8-9.1,7.5-10.1
			c0.4-0.1,0.8-1.1,0.9-1.7c1.4-7,6.1-13.2,4.7-20.9c-0.3-1.7-0.3-3.7,1.4-5c1.1-0.8,1.2-1.9,0.9-3.1c-2.8-13-3.5-26.6-9.1-38.9
			c-1.6-3.6-2.3-8.9-5.8-10.1c-5.3-1.9-8.6-6.9-15-7.6c-5.5-0.6-9.9-5.8-16.6-6c-5.5-0.1-10.3-4.6-16.7-4.7
			c-6.3-0.1-11.6-5.2-19-4.3c-6.3,0.8-12.5-3.8-19.5-3.8c-6.9,0.1-14-0.2-20.4-3.8c-1.3-0.7-2.9,0.4-4.3,1c-3.5,1.5-7.4,3.7-11,2.9
			c-6.9-1.4-12.9,1.9-19.2,3c-8.3,1.4-17.4,1-25.1,5.9c-1.8,1.1-4.4-1-7,0.6c-7.5,4.9-17.6,3.8-24.6,10.2c-0.2,0.2-0.6,0.3-0.9,0.3
			c-6.9-0.7-11.5,4.6-14.5,8.6c-5.2,7.1-9.7,15.3-9.9,24.8c0,2.2-0.8,4.4-1.5,6.6C999.5,673.3,998,677.4,998.6,682.3z"/>
		<path class="st14" d="M1317,343.3c1.6,2.6,4.7,3.8,5.7,6.8c1.1,2.2,2.3,4.4,3.2,6.7c1,2.6,0.9,5.3-1.2,7.4
			c-2.2,2.3-4.7,1.9-7.4,0.7c-12.8-5.6-26-10.1-39.8-12.5c-13.6-2.4-27.4-2.8-41.2-2.7c-1.9,0-3.4,1.1-5.2,1.3c-2,0-4,0-6,0.1
			c-7.4,0.1-14.8,1.4-22.1,2.2c-9,1-17.7,4.2-26.8,3.3c-6.7-3.2-7-9-6.2-15.3c1-8.2,4.7-14.2,13.1-16.3c20.3-5.1,41-6.8,61.8-6.2
			c12.7,0.3,25.2,1.7,37.5,4.8c10.7,2.7,20.2,7.5,28.7,14.4C1313.1,339.8,1315,341.5,1317,343.3z"/>
		<path class="st14" d="M934.4,333.5c23.1-12.6,48.2-13.9,73.6-13.5c15.1,0.2,30.2,2,44.9,5.6c10.6,2.6,16.7,12.3,14.8,23.1
			c-1.2,6.8-5,9.5-12.1,8.6c-1.1-0.1-2.3-0.2-3.5-0.3c-0.7-0.2-1.4-0.3-2-0.5c-0.5-0.1-1.1-0.1-1.6-0.2c-7.2-2.4-14.9-2-22.3-3.2
			c-13.4-2.2-27-2.6-40.6-2c-22.2,1-43.6,5.6-63.9,14.6c-3.1,1.4-6.4,3-9.2,0c-2.8-3.1-1.9-6.8,0-9.8c3.6-5.9,7.3-11.9,13.1-16
			c1.9-1.4,3.9-2.9,5.8-4.3C932.4,334.8,933.4,334.1,934.4,333.5z"/>
		<path class="st22" d="M1208.2,415.9c-0.4-2.2,0.9-3.9,1.2-6c0.1-0.5,0.3-1.1,0.4-1.6c0,0,0-0.1,0-0.1c0.9-2.4,1.8-4.8,2.7-7.2
			c4-9.1,12.2-12.3,20.7-15c1-0.1,2-0.2,3-0.3c19,1.2,30,10.5,32.4,28.1c1.7,12.6-3,23.1-13.4,30.3c-10,6.9-20.9,6.8-31.6,1
			c-1.9-1-3.6-2.2-5.4-3.3c-0.9-1-1.9-2-2.8-2.9c-0.2-1.6-1.1-2.8-2.2-3.9c-1.4-3.7-2.8-7.3-4.2-11
			C1208.7,421.3,1208.5,418.6,1208.2,415.9z"/>
		<path class="st22" d="M1008.7,448.8c-0.5,0.2-1,0.4-1.5,0.5c-1.3,0.3-2.7,0.5-4,0.8c-2.7,0-5.3,0-8,0c-0.7-0.1-1.3-0.1-2-0.2
			c-22.6-7.4-31.2-28.6-19.3-48.8c6-10.1,15.7-14.3,27.3-14.3c2,0.4,3.9,1.5,6,1.1c3.9,1.6,7.7,3.3,10.9,6.2c1,1,1.9,1.9,2.9,2.9
			c2.5,2.7,4.1,5.9,6,9c1.8,7.2,2.8,14.5,1,21.9c-1.1,2.5-2.2,5-3.4,7.5c0,0,0,0.1,0,0.1c-0.6,0.8-1.1,1.5-1.7,2.3
			c-1.8,1.3-2.9,3.2-4.2,4.9c-1.9,1.4-3.9,2.7-5.8,4.1c-0.3,0-0.5,0-0.7,0.2c-0.4,0.3-0.9,0.5-1.3,0.8c-0.3,0-0.5,0-0.7,0.2
			C1009.7,448.3,1009.2,448.5,1008.7,448.8z"/>
		<path class="st23" d="M1146.1,472.3c3.2,8.5,7.4,16.7,9.6,25.6c4,15.6,2.3,30-10.6,41.1c-10.1,8.7-22.2,11.6-35.4,10.6
			c-6.3-0.5-12.4-2.1-18.5-3.6c-3,0-4.6-3.5-7.8-3.1c-2.7-3.7-7.4-5.1-10-9c-0.5-3-2-6.1,0.9-8.8c1.2-0.4,2.4-0.9,3.5-1.3
			c3.9-0.7,6.8,1.7,10,3.3c1.5,1.4,3.2,2.3,5.2,3c9.3,5,19,6.1,29.2,3.8c2.7-0.1,5.1-0.9,7.1-2.8c1.1,0,2.3,0,3-1.1
			c4.6-2.8,9.1-5.7,8.9-12.1c1.6-0.9,2.3-2.2,1.8-4c1.3-7-0.4-13.6-3-20c0.1-1.6-0.9-2.8-1.7-4c-1.9-8-5.3-15.4-8.7-22.9
			c-0.2-1-0.3-2.1-0.5-3.1c0.4-0.5,0.9-1,1.3-1.5c0.9-1,2.1-1.8,2.1-3.3c1.9,0.2,3.8-2.1,5.7,0c1.3,1,2.6,1.9,3.9,2.9
			c0.1,2.2,0.8,4.2,2.2,5.9C1144.2,469.7,1144.9,471,1146.1,472.3z"/>
		<path class="st24" d="M1088,693.8c0-3.8,0.3-6.8,1.8-9.5c1-1.9,2.4-3.6,4.6-3.3c10.5,1.6,21.1-0.4,31.7,0.2c5.7,0.3,12,1.4,18-0.3
			c2.6-0.7,4.3,1.2,5.4,3.5c3.1,6.3,2,13.7-2.9,19.3c-0.8,0.9-0.8,2.5-1.4,3.7c-1.9,3.9-2.5,9-8.6,8.7c-0.4,0-0.9,0.5-1.1,0.9
			c-2.9,5.8-9.9,4-14.1,7.7c-1.1,1-3.3,0.7-4.8-0.3c-2.3-1.6-5.7-1.7-7.2-2.8c-5.6-4.5-14.7-5.2-16.1-14.2c-0.6-4-5.5-5.8-5.2-10.2
			C1088.4,695.7,1088.1,694.4,1088,693.8z"/>
		<path class="st21" d="M1118.6,651c-24.3-1-48.3-0.9-72.2-2.9c-3.5-0.3-6.5-1.5-6.4-5.5c0.1-3.6,2.6-5.2,6.2-5
			c33,1.6,65.9,0.3,98.9,0.3c15.5,0,31,0.9,46.4-0.8c3.8-0.4,7,0.6,7.2,4.8c0.2,4.2-2.8,5.5-6.6,5.9
			C1167.6,650,1142.9,649.8,1118.6,651z"/>
	</g>
	<g id="punch">
		<path class="st25" d="M2048.6,685.7c-0.2,1.3-0.2,2.6-0.5,3.8c-9.4,40.9-18.9,81.7-28.4,122.6c-0.3,1.2-0.8,2.4-1.3,3.6
			c-16.8-5.6-33.7-11.2-50.5-16.8c-1.6-0.5-3.5-0.4-4-3c-1-4.9-4.6-4.8-8.1-2.8c-4.1,2.2-7.8,4.9-11.8,7.3
			c-24.2,14.7-50.2,20.2-78.2,15.8c-14.2-2.2-28.5-4.2-42.9-5.4c-6.3-0.5-12.5-1.1-18.8-1.5c-13.8-1-25-5.8-34.8-16.7
			c-7.5-8.3-9.9-16.1-7.8-26.3c1.1-5.3-1-9.3-4.7-12.9c-3.4-3.3-7.6-5.3-12.3-6.5c1.9-3.2,3.6-1.7,5.5-0.9
			c7.9,3.7,15.7,7.3,23.7,10.8c4.2,1.8,8.6,3.7,13.4,2.9c13.3-2.2,26.6-4.6,39.9-6.9c12.2-2.2,20.3-9.4,24.8-20.6
			c2-4.9,5-10.6,3.3-15.3c-1.6-4.4-3.5-9.2-6-13.4c-5.6-9.2-6.9-19.4-6.3-29.9c0.2-4.1,0.7-8.1,1-12.1c0.2-2.1-0.6-3.9-2.6-4.4
			c-2.4-0.6-3.8,1-4.5,3.1c-0.4,1.2-0.7,2.5-0.9,3.8c-0.8,5.3-1.6,10.6-2.2,15.9c-0.3,3.5-1.9,5.9-5.2,7c-3.6,1.2-4.8-1.7-6.5-3.8
			c-0.6-0.7-1-1.5-1.6-2.2c-1.2-1.4-2.7-2-4.4-1.1c-1.7,0.9-2.3,2.3-1.7,4.2c2.5,6.9-1.1,11.7-5.5,16.3c-5.6,5.7-12.5,9.1-20.1,11.2
			c-1.9,0.5-4.5,0.7-3.9,3.6c0.6,2.9,3.3,1.9,5.1,1.6c5.1-0.8,10.2-1.7,15.2-3.1c3.1-0.9,4.3,0,5.3,2.7c1.5,4.1,1.5,8.3,1.3,12.6
			c-0.1,1.8-0.3,4.2,2,4.6c2.6,0.5,3.2-2,3.8-3.9c1.8-5.9,2.3-12.1,0.8-18.1c-0.8-3.2,0.3-4.7,2.7-6.4c8.4-5.7,14.8-4,19.3,5.1
			c7,13.9,2.2,27.8-12.2,31.3c-24.1,5.8-48.6,13-71.6-4.1c-1.2-0.9-2.6-1.4-3.9-2.1c-15.5-8.7-19.7-22.3-11.3-37.9
			c11.6-21.7,24.9-42.4,37.6-63.4c5.9-9.8,11.7-19.7,17.6-29.5c10.2-17,23-22.1,41.8-16.6c3.9,1.1,7.8,2.5,11.4,4.2
			c37.5,17,72.3,38.8,106.1,62.1c14.6,10.1,29.7,18.5,47.4,21.8C2018.4,678.6,2033.2,683.3,2048.6,685.7z"/>
		<path class="st26" d="M2048.6,685.7c-15.4-2.4-30.2-7.1-45.5-9.9c-17.7-3.3-32.7-11.7-47.4-21.8c-33.8-23.3-68.6-45.1-106.1-62.1
			c-3.7-1.7-7.6-3-11.4-4.2c-18.8-5.5-31.6-0.4-41.8,16.6c-5.9,9.8-11.6,19.7-17.6,29.5c-12.7,21-26,41.7-37.6,63.4
			c-8.3,15.6-4.2,29.2,11.3,37.9c1.3,0.7,2.7,1.2,3.9,2.1c22.9,17.1,47.5,9.9,71.6,4.1c14.4-3.5,19.2-17.4,12.2-31.3
			c-4.6-9.1-11-10.8-19.3-5.1c-2.4,1.6-3.5,3.2-2.7,6.4c1.4,6,0.9,12.1-0.8,18.1c-0.6,1.9-1.1,4.4-3.8,3.9c-2.2-0.4-2-2.8-2-4.6
			c0.2-4.3,0.1-8.5-1.3-12.6c-1-2.8-2.2-3.6-5.3-2.7c-5,1.4-10.1,2.3-15.2,3.1c-1.8,0.3-4.5,1.3-5.1-1.6c-0.6-2.9,2-3,3.9-3.6
			c7.6-2.1,14.5-5.5,20.1-11.2c4.4-4.5,7.9-9.4,5.5-16.3c-0.7-1.9,0-3.3,1.7-4.2c1.7-0.9,3.2-0.2,4.4,1.1c0.6,0.7,1.1,1.5,1.6,2.2
			c1.7,2.1,2.8,5.1,6.5,3.8c3.4-1.1,4.9-3.5,5.2-7c0.5-5.3,1.4-10.6,2.2-15.9c0.2-1.3,0.5-2.5,0.9-3.8c0.7-2.1,2.2-3.7,4.5-3.1
			c2,0.5,2.7,2.3,2.6,4.4c-0.3,4-0.8,8.1-1,12.1c-0.6,10.5,0.7,20.7,6.3,29.9c2.6,4.2,4.5,9,6,13.4c1.7,4.8-1.3,10.4-3.3,15.3
			c-4.6,11.2-12.7,18.5-24.8,20.6c-13.3,2.4-26.6,4.7-39.9,6.9c-4.8,0.8-9.1-1.1-13.4-2.9c-8-3.5-15.8-7.2-23.7-10.8
			c-1.8-0.9-3.6-2.3-5.5,0.9c4.6,1.2,8.8,3.2,12.3,6.5c3.7,3.6,5.8,7.6,4.7,12.9c-2.1,10.2,0.3,18,7.8,26.3
			c9.8,10.9,21,15.7,34.8,16.7c6.3,0.5,12.5,1,18.8,1.5c14.4,1.2,28.6,3.2,42.9,5.4c28,4.4,54-1.2,78.2-15.8c4-2.4,7.7-5.1,11.8-7.3
			c3.5-1.9,7.1-2.1,8.1,2.8c0.5,2.6,2.4,2.5,4,3c16.8,5.6,33.7,11.2,50.5,16.8c1.1,2.8,2.2,5.6-0.4,8.2c-2.8,2.8-5.7,1.5-8.7,0.5
			c-16.7-5.5-33.3-11-50-16.5c-2.7-0.9-5.1-1.1-7.8,0.6c-28.6,18-59.6,24.2-92.9,17.7c-18.4-3.6-37.1-4.3-55.6-6
			c-17.6-1.6-32.7-7.5-42.6-23.1c-1.2-1.9-3.1-3.1-5-4.3c-5.5-3.4-11.2-6.6-15.8-11.2c-9.6-9.6-13.4-20.7-8-33.8
			c1.2-2.9,0.4-3.8-2-4.9c-6.5-2.8-12.3-6.6-17.7-11.3c-15.9-13.8-19.6-31.1-10.2-49.9c15.4-30.5,32.7-60,50.6-89.1
			c10-16.2,25.8-21.6,44.2-18.4c8,1.4,15.6,2.2,23.8,0.8c14.4-2.4,27.7,3.2,40.5,9.3c37.8,18,73,40.5,107.3,64.4
			c10.4,7.2,21.4,12.1,33.7,14.7c14.6,3.1,29.1,6.9,43.7,10.3c2.7,0.7,5.5,1.2,6.4,4.4C2052.8,681.5,2051.3,683.8,2048.6,685.7z
			 M1795.6,585.7c-13.3-3.9-26.3,0.4-34.1,13c-17.8,28.7-34.7,58-50.2,88c-10,19.4,1,36.2,20.6,44.5c-7.6-17.9-7.8-24.9,0.2-39.3
			C1752,655.8,1774.3,621.2,1795.6,585.7z M1754.6,779c0.3-3.8,0.4-7.1,0.8-10.3c1.3-8.6,0.1-11.1-7.4-14.9c-5.2-2.6-6.9-1.8-7.8,4
			C1738.9,765.8,1743.8,773.1,1754.6,779z"/>
		<path class="st25" d="M1795.6,585.7c-21.3,35.5-43.5,70.1-63.5,106.1c-8,14.4-7.8,21.5-0.2,39.3c-19.6-8.2-30.6-25.1-20.6-44.5
			c15.5-30.1,32.5-59.3,50.2-88C1769.3,586.1,1782.3,581.7,1795.6,585.7z"/>
		<path class="st27" d="M1754.6,779c-10.8-5.9-15.7-13.2-14.4-21.2c0.9-5.7,2.6-6.6,7.8-4c7.5,3.8,8.7,6.3,7.4,14.9
			C1755,772,1754.9,775.3,1754.6,779z"/>
	</g>
</g>
</svg>
